<svg width="49" height="49" viewBox="0 0 49 49" fill="none" xmlns="http://www.w3.org/2000/svg">
<g clip-path="url(#clip0_384_65)">
<path d="M27.6023 5.10758C28.118 5.4692 28.4048 5.85799 28.5632 6.46592C28.5838 6.72716 28.5812 6.98571 28.575 7.24753C28.5741 7.31623 28.5733 7.38492 28.5724 7.45569C28.5702 7.62353 28.5668 7.79134 28.5632 7.95915C28.6172 7.96047 28.6713 7.9618 28.727 7.96316C31.1503 8.09789 33.9459 9.25245 35.8285 10.7513C35.9999 10.8698 35.9999 10.8698 36.1849 10.8362C36.2842 10.798 36.2842 10.798 36.3855 10.759C36.4751 10.7244 36.5648 10.6899 36.6572 10.6543C36.758 10.6138 36.8589 10.5732 36.9627 10.5315C38.5567 9.92399 40.145 9.95945 41.7151 10.6197C43.2979 11.4117 44.294 12.6927 44.8502 14.3477C45.2155 15.835 44.9784 17.4964 44.1993 18.8124C43.8075 19.3623 43.3278 19.9548 42.7617 20.3322C42.5864 20.4512 42.5864 20.4512 42.5828 20.6472C42.5942 20.718 42.6057 20.7887 42.6174 20.8616C42.6451 21.0404 42.6725 21.2193 42.6999 21.3982C42.7158 21.5002 42.7317 21.6022 42.7481 21.7072C42.8709 22.5444 42.9216 23.3622 42.9178 24.2097C42.9176 24.3033 42.9176 24.3033 42.9173 24.3989C42.898 28.5977 41.2936 32.7768 38.2704 35.7705C39.2345 35.8013 40.1986 35.8321 41.192 35.8639C41.192 35.5867 41.192 35.3095 41.192 35.0239C41.3741 34.3344 41.724 33.7699 42.3572 33.4009C43.0523 33.0969 43.6586 33.0407 44.3749 33.3014C44.9081 33.52 45.2467 33.8444 45.6333 34.2598C45.757 34.389 45.8809 34.5179 46.0051 34.6466C46.0661 34.71 46.1271 34.7734 46.1899 34.8388C46.4295 35.0778 46.6838 35.296 46.9418 35.5153C47.2592 35.7892 47.5599 36.0789 47.8598 36.3713C47.9207 36.4289 47.9815 36.4865 48.0442 36.5458C48.5326 37.0229 48.8674 37.4738 48.9701 38.1562C48.9687 38.315 48.9687 38.315 48.9672 38.477C48.9686 38.6358 48.9686 38.6358 48.9701 38.7978C48.8475 39.6119 48.3605 40.1125 47.7906 40.6684C47.7176 40.7408 47.6446 40.8132 47.5694 40.8878C47.4156 41.04 47.2612 41.1918 47.1065 41.3431C46.8711 41.5734 46.6376 41.8055 46.4042 42.0378C46.2538 42.1861 46.1034 42.3343 45.9528 42.4824C45.8837 42.5512 45.8145 42.6199 45.7433 42.6907C45.0876 43.3284 44.4877 43.8026 43.5422 43.8316C42.8285 43.8238 42.2783 43.6632 41.7689 43.1525C41.3258 42.6016 41.1656 42.0889 41.1802 41.3818C41.1819 41.2743 41.1836 41.1667 41.1854 41.0559C41.1886 40.9343 41.1886 40.9343 41.192 40.8102C41.1059 40.8121 41.0199 40.8141 40.9313 40.8161C40.6107 40.8225 40.2902 40.8272 39.9696 40.8307C39.8311 40.8326 39.6926 40.8351 39.5542 40.8384C39.3546 40.8429 39.1551 40.845 38.9555 40.8466C38.8356 40.8486 38.7156 40.8506 38.5921 40.8526C38.2163 40.8031 38.0636 40.7004 37.7992 40.4369C37.7366 40.2502 37.7366 40.2502 37.7403 40.0636C37.739 40.002 37.7378 39.9404 37.7366 39.8769C37.8378 39.5752 38.0001 39.4845 38.2704 39.317C38.5689 39.2613 38.8626 39.2624 39.1657 39.2641C39.2518 39.2635 39.3379 39.2629 39.4265 39.2623C39.6081 39.2617 39.7897 39.262 39.9712 39.2632C40.2487 39.2645 40.5258 39.2613 40.8032 39.2577C40.9799 39.2576 41.1566 39.2578 41.3333 39.2583C41.416 39.257 41.4987 39.2558 41.5839 39.2545C41.9932 39.2607 42.1771 39.2796 42.5163 39.5251C42.7093 39.7969 42.7595 39.9181 42.7632 40.2448C42.7655 40.33 42.7678 40.4152 42.7702 40.5031C42.7703 40.5909 42.7705 40.6788 42.7706 40.7694C42.7737 40.9445 42.7771 41.1196 42.7809 41.2947C42.7813 41.3719 42.7818 41.4491 42.7823 41.5286C42.7941 41.7419 42.8107 41.9171 42.8884 42.1168C43.2303 42.2296 43.4714 42.2436 43.8308 42.2101C44.0984 42.0458 44.0984 42.0458 44.3433 41.7901C44.392 41.7428 44.4408 41.6955 44.491 41.6468C44.6077 41.533 44.7238 41.4184 44.8393 41.3033C45.0514 41.0947 45.2669 40.8901 45.4836 40.6862C45.6924 40.4891 45.8996 40.2904 46.1066 40.0914C46.2109 39.9915 46.3157 39.8921 46.4211 39.7932C46.5711 39.652 46.7188 39.5087 46.8662 39.3647C46.9531 39.2814 47.0401 39.1981 47.1297 39.1123C47.366 38.7834 47.3635 38.5925 47.3179 38.197C47.211 37.9934 47.211 37.9934 47.041 37.8354C46.9808 37.7732 46.9205 37.711 46.8584 37.6469C46.7924 37.5821 46.7263 37.5172 46.6582 37.4504C46.5901 37.3808 46.5221 37.3111 46.452 37.2393C46.0725 36.8551 45.6808 36.4945 45.267 36.1471C45.0958 35.9931 44.9366 35.8366 44.7773 35.671C44.728 35.6202 44.6788 35.5694 44.628 35.5171C44.5305 35.4159 44.4339 35.3137 44.3386 35.2105C44.0287 34.89 43.8111 34.7545 43.3596 34.7439C43.0082 34.9057 43.0082 34.9057 42.7941 35.2106C42.7843 35.3413 42.7795 35.4725 42.7776 35.6036C42.7753 35.6813 42.7731 35.759 42.7708 35.8391C42.7667 36.0026 42.7638 36.1662 42.7619 36.3298C42.758 36.4467 42.758 36.4467 42.754 36.566C42.7526 36.6372 42.7513 36.7083 42.7498 36.7816C42.6791 37.0679 42.5533 37.1732 42.3229 37.3571C42.0604 37.3999 42.0604 37.3999 41.7545 37.3947C41.6396 37.3938 41.5247 37.393 41.4064 37.3921C41.2823 37.3896 41.1582 37.387 41.0304 37.3844C40.9007 37.3837 40.7711 37.3833 40.6414 37.3831C40.0922 37.382 39.5431 37.3772 38.994 37.3677C38.6574 37.3621 38.321 37.3607 37.9844 37.3617C37.7962 37.3611 37.608 37.3559 37.4199 37.3506C36.4102 37.3558 35.9256 37.6877 35.1603 38.2904C34.8928 38.4566 34.6192 38.6081 34.3416 38.757C34.2767 38.7925 34.2119 38.828 34.1452 38.8645C33.9197 38.9877 33.6942 39.1096 33.4639 39.2236C33.5552 39.2249 33.5552 39.2249 33.6483 39.2263C33.9246 39.2313 34.2008 39.2391 34.477 39.247C34.5728 39.2483 34.6685 39.2496 34.7671 39.251C35.4728 39.274 35.4728 39.274 35.7887 39.4847C35.9194 39.6986 35.9678 39.8154 35.9673 40.0636C35.9704 40.156 35.9704 40.156 35.9735 40.2502C35.8789 40.5484 35.7047 40.6429 35.443 40.8102C35.1828 40.846 34.9606 40.8603 34.7009 40.857C34.6268 40.8575 34.5526 40.858 34.4762 40.8585C34.2281 40.8598 33.98 40.8584 33.7318 40.857C33.5537 40.8574 33.3757 40.8579 33.1977 40.8585C32.7141 40.8598 32.2307 40.8588 31.7472 40.8573C31.241 40.856 30.7348 40.8566 30.2287 40.8569C29.3783 40.8572 28.528 40.8559 27.6776 40.8537C26.6952 40.8513 25.7128 40.8511 24.7304 40.8522C23.7849 40.8532 22.8395 40.8526 21.894 40.8513C21.4919 40.8508 21.0898 40.8508 20.6877 40.8512C20.2137 40.8517 19.7398 40.8507 19.2658 40.8487C19.0921 40.8482 18.9184 40.8481 18.7447 40.8486C18.5071 40.8491 18.2695 40.848 18.0318 40.8464C17.9294 40.8472 17.9294 40.8472 17.825 40.8481C17.0681 40.8388 16.4739 40.5979 15.9344 40.0636C15.4504 39.3822 15.3916 38.7324 15.4631 37.9171C15.6054 37.3336 15.9124 36.9571 16.3596 36.5646C17.0123 36.1729 17.6724 36.103 18.4215 36.1079C18.5627 36.1072 18.5627 36.1072 18.7066 36.1064C18.9096 36.1055 19.1126 36.1052 19.3156 36.1055C19.6384 36.1059 19.9611 36.1046 20.2839 36.1029C20.9703 36.0994 21.6566 36.0982 22.343 36.0972C23.1365 36.0961 23.93 36.094 24.7235 36.0897C25.0388 36.0885 25.3541 36.0888 25.6695 36.0893C29.1726 36.0805 32.2424 34.923 34.7833 32.5041C36.9597 30.3172 38.1266 27.3647 38.1113 24.3147C38.1072 23.84 38.0974 23.3659 38.0819 22.8914C38.0795 22.8034 38.0771 22.7154 38.0746 22.6247C38.0554 22.1815 38.0204 21.7936 37.7992 21.3982C37.4781 21.2039 37.1882 21.1143 36.8236 21.0242C36.3085 20.8855 35.9488 20.6041 35.5373 20.2783C35.4797 20.2375 35.4221 20.1967 35.3628 20.1547C34.3402 19.3848 33.6754 18.0552 33.4639 16.8252C33.4566 16.6604 33.4537 16.4954 33.4547 16.3305C33.455 16.2394 33.4553 16.1482 33.4556 16.0543C33.4564 15.9603 33.4572 15.8663 33.458 15.7694C33.4584 15.6736 33.4589 15.5778 33.4593 15.4791C33.4604 15.2434 33.462 15.0077 33.4639 14.772C33.3954 14.7472 33.3269 14.7224 33.2563 14.6969C32.9925 14.5853 32.7813 14.4539 32.545 14.2937C31.3054 13.5044 29.9716 13.0297 28.5632 12.6255C28.5686 12.6955 28.5741 12.7655 28.5797 12.8377C28.6118 13.5579 28.5299 14.09 28.0919 14.6787C27.5747 15.1951 27.0378 15.397 26.3072 15.4545C24.9116 15.4066 23.9338 14.132 23.0263 13.2204C22.9116 13.1059 22.7969 12.9915 22.6821 12.877C22.425 12.6206 22.1684 12.3637 21.912 12.1065C21.7806 11.9752 21.6483 11.8448 21.5161 11.7143C21.0383 11.2388 20.8308 10.8056 20.7998 10.129C20.8356 9.12835 21.3239 8.51327 22.0367 7.84832C22.1096 7.77789 22.1825 7.70745 22.2576 7.63487C22.5974 7.30881 22.9437 6.99285 23.302 6.68684C23.5918 6.43892 23.8583 6.17803 24.1212 5.90256C25.1083 4.87458 26.2253 4.33149 27.6023 5.10758ZM24.4303 7.76037C24.1392 8.05081 23.8468 8.33414 23.5329 8.60077C22.7994 9.19145 22.7994 9.19145 22.3018 9.96568C22.4066 10.7958 23.5242 11.5727 24.1086 12.1513C24.2814 12.3226 24.4534 12.4946 24.6253 12.6667C24.7364 12.7769 24.8475 12.8872 24.9587 12.9973C25.0093 13.0482 25.06 13.099 25.1122 13.1514C25.6707 13.7247 25.6707 13.7247 26.4073 13.9321C26.7365 13.8187 26.8496 13.7461 27.0553 13.4654C27.1111 13.155 27.1123 12.8469 27.1142 12.5322C27.1166 12.3649 27.1197 12.1977 27.1237 12.0305C27.1243 11.9567 27.1249 11.8828 27.1254 11.8067C27.1524 11.5737 27.2129 11.4239 27.338 11.2256C27.9233 10.9358 28.7232 11.1824 29.323 11.3306C29.4524 11.3621 29.4524 11.3621 29.5844 11.3943C31.1978 11.8006 32.636 12.471 34.0294 13.3721C34.0748 13.2945 34.1202 13.2169 34.1671 13.137C34.2266 13.0355 34.2861 12.9341 34.3474 12.8296C34.4065 12.7289 34.4655 12.6283 34.5264 12.5245C34.6382 12.3373 34.7557 12.1532 34.8776 11.9722C33.025 10.4237 30.2705 9.50074 27.8792 9.33244C27.5026 9.23523 27.3716 9.11708 27.1495 8.79909C27.0759 8.3665 27.0997 7.93113 27.1072 7.49397C27.1081 6.9331 27.1081 6.9331 26.8333 6.4528C26.5957 6.26618 26.5957 6.26618 26.319 6.20927C25.5532 6.38771 24.9696 7.22121 24.4303 7.76037ZM35.9702 13.001C35.6861 13.35 35.4612 13.7206 35.2546 14.1187C35.2061 14.2115 35.2061 14.2115 35.1566 14.3061C34.7967 15.1556 34.8323 16.3498 35.1309 17.2102C35.3184 17.6381 35.5487 18.031 35.82 18.4118C35.8725 18.4907 35.925 18.5696 35.9791 18.6509C36.6842 19.3869 37.6799 19.9545 38.7122 20.0205C40.1227 20.0568 41.2007 19.7577 42.2497 18.7756C43.1345 17.8486 43.508 16.8214 43.4829 15.5591C43.3819 14.4463 42.8894 13.4142 42.0696 12.643C40.2167 11.1637 37.6258 11.2455 35.9702 13.001ZM40.1435 21.3515C40.0724 21.3649 40.0014 21.3783 39.9281 21.392C39.7525 21.425 39.5769 21.4583 39.4013 21.4915C39.4138 21.5585 39.4264 21.6256 39.4392 21.6946C40.0533 25.259 39.3785 28.9328 37.2514 31.915C37.1222 32.0821 36.9904 32.2472 36.8567 32.4108C36.8145 32.4624 36.7724 32.514 36.7289 32.5671C34.6904 35.0407 31.9315 36.7451 28.7517 37.3571C28.677 37.3727 28.6023 37.3883 28.5253 37.4044C27.5468 37.5828 26.5706 37.5714 25.5787 37.5722C25.253 37.5726 24.9274 37.5741 24.6018 37.576C23.6768 37.5812 22.7519 37.5841 21.8269 37.5863C21.259 37.5878 20.6912 37.5906 20.1233 37.5942C19.9075 37.5953 19.6916 37.5959 19.4758 37.5959C19.1749 37.5959 18.8741 37.5976 18.5732 37.5997C18.4399 37.599 18.4399 37.599 18.3038 37.5984C17.8474 37.6034 17.5256 37.6157 17.1596 37.9171C16.9404 38.2426 16.9395 38.3745 16.9711 38.757C17.0533 39.0014 17.1069 39.0988 17.3301 39.2323C17.5515 39.3231 17.7023 39.3406 17.9406 39.3413C18.0208 39.342 18.1009 39.3426 18.1835 39.3433C18.2706 39.3431 18.3578 39.3428 18.4477 39.3426C18.5401 39.3431 18.6326 39.3435 18.7279 39.344C19.0345 39.3453 19.3412 39.3452 19.6478 39.345C19.8623 39.3454 20.0768 39.3458 20.2912 39.3462C20.7421 39.3469 21.193 39.3469 21.6439 39.3464C22.2163 39.3459 22.7887 39.3475 23.3611 39.3496C23.8051 39.351 24.2491 39.3511 24.6931 39.3508C24.9038 39.3508 25.1144 39.3513 25.3251 39.3523C27.0136 39.3589 28.7052 39.2766 30.3303 38.7803C30.4113 38.7564 30.4923 38.7324 30.5757 38.7077C34.4918 37.5161 37.7792 34.8412 39.7135 31.2559C41.3235 28.1609 41.8107 24.6239 41.0977 21.2116C40.7747 21.2116 40.4599 21.2915 40.1435 21.3515Z" fill="white"/>
<path d="M25.198 16.4175C25.3993 16.4171 25.6004 16.4137 25.8017 16.4102C25.9308 16.4096 26.06 16.4092 26.1891 16.4091C26.3056 16.4083 26.422 16.4075 26.542 16.4067C27.0117 16.4723 27.4244 16.7293 27.7151 17.1054C27.7608 17.3066 27.7608 17.3066 27.7858 17.5253C27.8224 17.7479 27.8224 17.7479 27.9036 17.9453C28.2045 18.1329 28.4049 18.2345 28.7636 18.2136C28.9521 18.133 28.9521 18.133 29.1464 17.9861C29.5148 17.7997 29.8543 17.7716 30.2597 17.852C30.8433 18.1223 31.2498 18.513 31.6969 18.9661C31.7635 19.0317 31.8301 19.0973 31.8987 19.1649C32.7503 20.0171 32.7503 20.0171 32.7513 20.6926C32.7442 21.0705 32.7294 21.1844 32.5039 21.5034C32.3119 21.749 32.3119 21.749 32.3412 21.9853C32.4023 22.2328 32.4642 22.4052 32.6158 22.6116C32.831 22.6997 33.024 22.7278 33.2546 22.7567C33.585 22.8223 33.7328 23.0098 33.9353 23.2649C34.2507 23.7486 34.1588 24.3564 34.1587 24.9116C34.1591 25.1185 34.1625 25.3252 34.1661 25.5321C34.1666 25.6647 34.167 25.7973 34.1672 25.9299C34.168 26.0497 34.1687 26.1695 34.1695 26.2929C34.1068 26.7475 33.9053 27.0277 33.5818 27.348C33.3654 27.4671 33.2279 27.4872 32.9869 27.523C32.73 27.5793 32.6427 27.6128 32.491 27.8299C32.3996 28.0584 32.3462 28.2457 32.3331 28.4912C32.4521 28.6822 32.5784 28.8687 32.7101 29.0512C32.7885 29.493 32.7869 29.8438 32.5691 30.2426C32.2691 30.6563 31.8916 31.0049 31.5261 31.361C31.4176 31.4684 31.4176 31.4684 31.3069 31.578C30.5223 32.3488 30.5223 32.3488 29.9011 32.4146C29.4309 32.4063 29.0409 32.1974 28.6576 31.9443C28.4384 31.9827 28.4384 31.9827 28.2158 32.0727C28.1396 32.1003 28.0634 32.128 27.985 32.1565C27.927 32.1789 27.8691 32.2013 27.8093 32.2243C27.8171 32.3206 27.8249 32.4168 27.8329 32.516C27.8051 32.9429 27.7081 33.1129 27.4324 33.4376C26.8128 33.8938 26.1095 33.8279 25.3708 33.8284C25.2705 33.8295 25.1703 33.8307 25.067 33.8318C23.8507 33.8341 23.8507 33.8341 23.3868 33.4893C23.1323 33.1841 22.9853 32.9703 22.9263 32.5743C22.8544 32.2239 22.8544 32.2239 22.6318 32.1018C22.4022 32.0121 22.2127 31.958 21.9662 31.9443C21.7175 32.104 21.7175 32.104 21.4949 32.3176C21.0227 32.4308 20.6968 32.4601 20.248 32.2363C19.9066 32.0206 19.6194 31.754 19.3273 31.4777C19.2468 31.4038 19.1662 31.33 19.0832 31.2539C18.5087 30.7108 18.0733 30.2595 17.9608 29.4653C18.0047 29.1664 18.0484 29.052 18.2023 28.8062C18.4098 28.5161 18.4098 28.5161 18.3672 28.2463C18.3419 28.1731 18.3167 28.1 18.2906 28.0246C18.2592 27.8691 18.2278 27.7135 18.1964 27.558C18.0817 27.5483 17.967 27.5387 17.8489 27.5288C17.4908 27.4813 17.2517 27.4238 16.9712 27.1847C16.518 26.5036 16.5405 25.8717 16.553 25.0731C16.5523 24.9521 16.5516 24.8311 16.551 24.7064C16.555 24.1119 16.5621 23.6927 16.877 23.1716C17.3378 22.7598 17.5784 22.6936 18.1964 22.705C18.3351 22.2929 18.4314 22.0032 18.2906 21.5851C18.242 21.4965 18.1934 21.408 18.1434 21.3167C17.9815 20.9684 17.9668 20.7519 18.0079 20.3718C18.1824 19.9686 18.3839 19.6844 18.6967 19.3758C18.7749 19.2985 18.853 19.2211 18.9336 19.1414C19.0149 19.0624 19.0963 18.9833 19.1801 18.9019C19.261 18.8214 19.342 18.7409 19.4254 18.658C20.2729 17.8259 20.2729 17.8259 20.8706 17.8228C21.2664 17.8306 21.529 17.9298 21.8719 18.132C22.2185 18.2464 22.3008 18.1755 22.6259 18.0386C22.7192 18.0386 22.8125 18.0386 22.9086 18.0386C22.91 17.9845 22.9113 17.9304 22.9127 17.8746C22.9478 17.3054 23.05 17.03 23.4741 16.6387C24.0166 16.3644 24.6043 16.4174 25.198 16.4175ZM24.4165 17.9453C24.4068 18.0935 24.3971 18.2417 24.3871 18.3944C24.3588 18.8261 24.3588 18.8261 24.2141 19.0342C23.9728 19.2061 23.7239 19.2924 23.4446 19.3919C23.1237 19.5071 22.8201 19.6223 22.5162 19.7768C22.1273 19.9636 21.9241 19.9591 21.4949 19.9052C21.2122 19.6719 21.2122 19.6719 21.0237 19.4385C20.6398 19.5888 20.3862 19.8621 20.1048 20.1502C20.0571 20.1983 20.0093 20.2464 19.9602 20.296C19.843 20.4142 19.7265 20.5329 19.6101 20.6518C19.7238 20.7731 19.7238 20.7731 19.8398 20.8968C20.0963 21.1704 20.1598 21.3986 20.1755 21.7717C20.1003 22.0318 19.9878 22.2692 19.8692 22.5125C19.8098 22.6397 19.7504 22.7669 19.691 22.8942C19.6615 22.9558 19.6319 23.0173 19.6014 23.0808C19.5177 23.2608 19.4438 23.4428 19.37 23.6269C19.2331 23.9182 19.2331 23.9182 18.9503 24.1049C18.5305 24.1511 18.5305 24.1511 18.1021 24.1982C18.1021 24.8142 18.1021 25.4301 18.1021 26.0647C18.3266 26.0821 18.3266 26.0821 18.5557 26.0997C18.9026 26.1265 19.0293 26.148 19.3273 26.3447C19.4321 26.5857 19.5241 26.8207 19.6101 27.068C19.7419 27.4394 19.8715 27.7965 20.0518 28.1482C20.212 28.4715 20.1978 28.6189 20.0813 28.9579C19.8398 29.2262 19.8398 29.2262 19.6101 29.4245C19.7618 29.8047 20.0378 30.0559 20.3287 30.3344C20.3773 30.3817 20.4259 30.429 20.4759 30.4777C20.5953 30.5937 20.7152 30.7091 20.8352 30.8244C20.9519 30.7118 20.9519 30.7118 21.0708 30.5969C21.3379 30.3834 21.5768 30.2585 21.9286 30.2331C22.4507 30.3055 22.9153 30.5908 23.3798 30.8244C23.6111 30.9244 23.8434 31.0215 24.0764 31.1175C24.228 31.1977 24.228 31.1977 24.3223 31.3844C24.3639 31.6947 24.3883 32.0057 24.4165 32.3176C25.0386 32.3176 25.6606 32.3176 26.3014 32.3176C26.3325 32.0405 26.3636 31.7633 26.3957 31.4777C26.6028 31.0674 26.6923 31.0327 27.1091 30.8862C27.1769 30.8639 27.2447 30.8416 27.3146 30.8186C27.4477 30.7731 27.5807 30.7273 27.7136 30.6811C27.7779 30.659 27.8422 30.6368 27.9084 30.614C28.1172 30.5386 28.1172 30.5386 28.4028 30.3873C28.7542 30.2178 28.9446 30.2523 29.3173 30.3578C29.5972 30.5888 29.5972 30.5888 29.8827 30.8244C30.287 30.424 30.6914 30.0237 31.1079 29.6112C30.9492 29.2558 30.9492 29.2558 30.7663 29.0687C30.5698 28.7591 30.5895 28.5736 30.6367 28.2113C30.7386 27.9766 30.8558 27.7551 30.9787 27.5306C31.1566 27.1829 31.2776 26.8219 31.4006 26.4523C31.4849 26.2514 31.4849 26.2514 31.6734 26.1581C31.9868 26.1169 32.3009 26.0927 32.6158 26.0647C32.6158 25.4488 32.6158 24.8328 32.6158 24.1982C32.3709 24.178 32.3709 24.178 32.121 24.1574C31.6251 24.0658 31.6251 24.0658 31.4462 23.8548C31.3612 23.6557 31.3612 23.6557 31.2872 23.4301C31.1855 23.1209 31.0425 22.8441 30.8959 22.5533C30.6753 22.1154 30.5834 21.7965 30.6367 21.3051C30.7936 21.0429 30.9843 20.872 31.2022 20.6518C30.7978 20.2514 30.3935 19.851 29.977 19.4385C29.6181 19.5957 29.6181 19.5957 29.4292 19.7768C29.1302 19.9629 28.9125 19.9292 28.5633 19.9052C28.2574 19.7925 28.2574 19.7925 27.9566 19.6427C27.6062 19.472 27.2675 19.3136 26.8964 19.1936C26.5842 19.0652 26.5842 19.0652 26.4487 18.9077C26.3712 18.5925 26.3421 18.2673 26.3014 17.9453C25.6794 17.9453 25.0574 17.9453 24.4165 17.9453Z" fill="white"/>
<path d="M18.6146 10.0068C19.2424 10.3664 19.6548 10.9277 19.8927 11.5992C20.0274 12.2548 20.0142 12.8785 19.6895 13.4814C19.3366 13.9833 18.8777 14.3204 18.3848 14.679C18.2153 14.8104 18.0465 14.9426 17.8783 15.0756C17.8017 15.1358 17.7252 15.1959 17.6463 15.2579C17.4439 15.4179 17.4439 15.4179 17.2856 15.5875C17.1596 15.7056 17.1596 15.7056 16.9712 15.7056C16.946 15.7615 16.9209 15.8175 16.895 15.8751C16.78 16.0837 16.6718 16.1961 16.494 16.3531C14.8427 17.9579 13.9516 20.3059 13.5783 22.5185C13.5658 22.5906 13.5533 22.6628 13.5404 22.7372C13.134 25.6043 14.0065 28.6356 15.6753 30.982C16.0862 31.5844 16.1774 32.1168 16.0784 32.8358C15.9204 33.5624 15.5214 34.0577 14.8978 34.4643C14.1833 34.8089 13.5601 34.9482 12.7832 34.7384C11.3783 34.2283 10.595 32.5229 9.98761 31.2627C9.51735 30.2447 9.12629 29.208 8.86611 28.1181C8.84763 28.0422 8.82914 27.9662 8.8101 27.888C8.18574 25.1985 8.17379 21.9364 9.13706 19.326C9.2717 19.1135 9.38245 19.054 9.62007 18.972C9.96694 18.9841 10.1923 18.9927 10.4624 19.217C10.7143 19.7746 10.5113 20.4088 10.3799 20.9786C10.3455 21.1311 10.3112 21.2838 10.2772 21.4364C10.2619 21.5032 10.2466 21.5699 10.2308 21.6386C9.87182 23.4341 9.90115 25.6873 10.374 27.4648C10.3932 27.5388 10.4125 27.6128 10.4323 27.6891C10.8578 29.2879 11.6862 32.2614 13.2032 33.1796C13.4893 33.2891 13.6647 33.2458 13.9553 33.1577C14.2232 32.9455 14.3921 32.7938 14.5011 32.4687C14.5259 32.1618 14.4556 32.049 14.2885 31.7921C14.2367 31.71 14.185 31.628 14.1316 31.5435C14.0754 31.4564 14.0192 31.3693 13.9612 31.2795C11.9292 28.0032 11.4218 24.3336 12.3178 20.6053C13.1511 17.7394 14.913 15.1609 17.3754 13.4337C17.4268 13.3971 17.4783 13.3605 17.5313 13.3227C17.6755 13.2208 17.8212 13.121 17.967 13.0214C18.2371 12.7754 18.3127 12.6063 18.3848 12.2525C18.275 11.8515 18.18 11.6571 17.8429 11.4067C17.4461 11.2934 17.2629 11.3668 16.8769 11.5059C16.665 11.6424 16.4765 11.7749 16.282 11.9317C16.2295 11.9729 16.177 12.014 16.123 12.0564C15.4602 12.5818 14.8303 13.1434 14.2381 13.7457C14.1925 13.7866 14.1469 13.8275 14.1 13.8697C13.1654 14.732 12.4844 15.8519 11.8458 16.9361C11.785 17.0382 11.785 17.0382 11.7229 17.1423C11.6875 17.2028 11.6522 17.2633 11.6158 17.3256C11.505 17.4788 11.505 17.4788 11.2222 17.6655C10.9513 17.7063 10.9513 17.7063 10.6568 17.6655C10.3858 17.4671 10.3858 17.4671 10.1855 17.1988C10.1154 16.697 10.2991 16.3588 10.5507 15.9389C10.5888 15.8739 10.6269 15.8089 10.6662 15.742C11.2512 14.7615 11.9134 13.872 12.7011 13.0421C12.8943 12.8381 13.078 12.6295 13.2603 12.4158C14.4828 11.0315 16.6466 9.13437 18.6146 10.0068Z" fill="white"/>
<path d="M8.86658 33.4374C9.27176 33.7508 9.63302 34.1061 9.99752 34.464C10.0818 34.5467 10.1661 34.6294 10.2529 34.7146C10.8145 35.2663 11.3733 35.8208 11.9306 36.3768C12.094 36.5396 12.2581 36.7015 12.423 36.8628C12.8817 37.3236 13.0874 37.8087 13.1312 38.4479C13.1049 39.456 12.5956 40.0329 11.8824 40.7169C11.7671 40.816 11.6513 40.9147 11.5353 41.0129C11.2264 41.2774 10.9393 41.556 10.655 41.8463C10.5724 41.9305 10.4898 42.0147 10.4047 42.1015C10.2353 42.275 10.0667 42.4493 9.89886 42.6243C9.30793 43.2232 8.74497 43.6947 7.89726 43.8554C7.06253 43.8356 6.45181 43.6896 5.86253 43.0792C5.41617 42.5234 5.26994 42.0016 5.27902 41.2962C5.27993 41.2049 5.28083 41.1135 5.28176 41.0194C5.28292 40.9504 5.28409 40.8814 5.28528 40.8102C5.16776 40.8124 5.16776 40.8124 5.04785 40.8147C4.75329 40.8195 4.45876 40.823 4.16417 40.8256C3.97552 40.8277 3.78689 40.8313 3.59826 40.8348C2.67069 40.8418 1.88071 40.7893 1.18637 40.1289C0.642923 39.5224 0.588435 38.8791 0.625689 38.0903C0.704552 37.4082 0.972406 36.9986 1.50371 36.5697C2.01739 36.1962 2.59048 36.1202 3.21448 36.1257C3.39625 36.1266 3.39625 36.1266 3.5817 36.1275C3.70779 36.1291 3.83388 36.1306 3.95997 36.1322C4.08863 36.1332 4.2173 36.134 4.34596 36.1348C4.65909 36.137 4.97218 36.14 5.28528 36.1439C5.28412 36.0749 5.28296 36.0058 5.28176 35.9347C5.28086 35.8434 5.27996 35.752 5.27902 35.6579C5.27786 35.5677 5.2767 35.4775 5.2755 35.3846C5.30041 34.7039 5.56118 34.1828 6.03188 33.6922C6.80847 33.0519 7.99078 32.9063 8.86658 33.4374ZM6.88744 35.024C6.7974 35.2915 6.77916 35.4718 6.77332 35.7502C6.76931 35.8796 6.76931 35.8796 6.76522 36.0116C6.76031 36.1931 6.75614 36.3746 6.7527 36.5562C6.74833 36.6856 6.74833 36.6856 6.74387 36.8176C6.742 36.8965 6.74013 36.9753 6.73821 37.0566C6.68984 37.3119 6.61813 37.3822 6.41622 37.5438C6.13826 37.5714 5.87919 37.5827 5.60115 37.5817C5.52109 37.5827 5.44102 37.5837 5.35853 37.5848C5.10242 37.588 4.84635 37.5894 4.59023 37.5905C4.25371 37.5918 3.91727 37.595 3.58078 37.5992C3.5037 37.5989 3.42662 37.5986 3.34721 37.5984C2.91143 37.604 2.62361 37.6374 2.26945 37.9171C2.11936 38.2144 2.13833 38.5268 2.17521 38.8504C2.33943 39.1524 2.40817 39.2073 2.74067 39.317C3.01516 39.3281 3.2878 39.3343 3.56237 39.3367C3.72767 39.3393 3.89296 39.342 4.05826 39.3447C4.31886 39.3486 4.57944 39.352 4.84006 39.3545C5.09158 39.357 5.34303 39.3613 5.59452 39.3659C5.67258 39.3662 5.75063 39.3665 5.83104 39.3668C6.37632 39.3784 6.37632 39.3784 6.57813 39.54C6.74067 39.7422 6.73504 39.8735 6.73724 40.13C6.73931 40.2154 6.74137 40.3008 6.7435 40.3888C6.74435 40.4778 6.7452 40.5669 6.74608 40.6586C6.72793 41.4408 6.72793 41.4408 7.07593 42.1168C7.40622 42.3349 7.5354 42.3484 7.92414 42.3035C8.15774 42.1603 8.15774 42.1603 8.36407 41.9495C8.44515 41.8727 8.52622 41.7959 8.60976 41.7168C8.69451 41.6332 8.77926 41.5496 8.86658 41.4635C8.95316 41.3791 9.03973 41.2947 9.12893 41.2077C9.3985 40.9426 9.66601 40.6757 9.93273 40.4078C10.1127 40.227 10.293 40.0466 10.4735 39.8664C10.5519 39.7877 10.6303 39.709 10.7111 39.6279C10.9345 39.4155 11.1691 39.2278 11.4112 39.037C11.578 38.8118 11.5999 38.6962 11.5981 38.416C11.4627 37.9596 11.1749 37.7149 10.8358 37.3885C10.7682 37.3218 10.7007 37.2551 10.6311 37.1864C10.4881 37.0458 10.3446 36.9057 10.2006 36.7662C9.98113 36.5534 9.76344 36.339 9.54599 36.1242C9.40663 35.9875 9.26717 35.8509 9.1276 35.7144C9.06278 35.6508 8.99797 35.5871 8.93119 35.5215C8.34102 34.9279 8.34102 34.9279 7.58839 34.604C7.27486 34.6677 7.11483 34.8051 6.88744 35.024Z" fill="white"/>
<path d="M28.2425 21.4857C29.1981 22.2849 29.8534 23.3246 29.9768 24.5713C30.0628 25.9603 29.719 27.0659 28.8492 28.1651C28.0904 28.9907 26.9585 29.5476 25.8352 29.6423C24.4161 29.6729 23.2092 29.3588 22.131 28.3948C21.0973 27.3247 20.7746 26.0763 20.806 24.6406C20.8535 23.6547 21.2474 22.8982 21.8718 22.1448C21.9259 22.0785 21.9799 22.0122 22.0356 21.944C23.6114 20.203 26.4034 20.1273 28.2425 21.4857ZM22.9792 23.1947C22.4208 23.8882 22.2782 24.5968 22.3069 25.4736C22.3992 26.2686 22.8498 26.9718 23.4386 27.5115C24.2064 28.1011 25.0677 28.2165 26.0186 28.1177C26.8729 27.9343 27.5919 27.3815 28.064 26.6588C28.4678 25.8889 28.5882 25.1423 28.3629 24.2972C28.0643 23.402 27.53 22.7708 26.6886 22.3318C25.3004 21.7073 23.9854 22.1386 22.9792 23.1947Z" fill="white"/>
<path d="M41.4748 13.9323C41.8034 14.1658 41.9286 14.3019 41.9998 14.699C41.9227 15.2057 41.657 15.4145 41.2863 15.7522C41.1889 15.8446 41.1889 15.8446 41.0895 15.9389C40.7153 16.2916 40.3343 16.6371 39.9389 16.9665C39.7028 17.1709 39.4883 17.3947 39.2733 17.6206C38.9858 17.8775 38.8238 17.9466 38.4288 17.9406C38.0006 17.8313 37.7612 17.6525 37.434 17.3679C37.3794 17.3241 37.3247 17.2802 37.2684 17.235C36.9966 17.0046 36.8716 16.8745 36.7666 16.5276C36.7615 16.1964 36.8368 16.0552 37.0453 15.7989C37.2826 15.6206 37.3992 15.6112 37.6991 15.6239C38.0262 15.7164 38.2095 15.8536 38.459 16.0788C38.9991 15.627 39.5155 15.1552 40.0289 14.674C40.921 13.8428 40.921 13.8428 41.4748 13.9323Z" fill="white"/>
</g>
<defs>
<clipPath id="clip0_384_65">
<rect width="48.2533" height="47.7833" fill="white" transform="translate(0.666748 0.399902)"/>
</clipPath>
</defs>
</svg>
