<svg width="50" height="50" viewBox="0 0 50 50" fill="none" xmlns="http://www.w3.org/2000/svg">
<g clip-path="url(#clip0_265_1655)">
<path d="M4.52337 11.2903C4.70705 11.2899 4.89072 11.2894 5.0744 11.2887C5.57807 11.2873 6.08173 11.2877 6.5854 11.2885C7.12901 11.2889 7.67262 11.2877 8.21623 11.2867C9.2808 11.285 10.3454 11.2849 11.4099 11.2854C12.2752 11.2858 13.1406 11.2857 14.0059 11.2852C14.129 11.2851 14.2522 11.285 14.3791 11.285C14.6293 11.2848 14.8795 11.2847 15.1297 11.2845C16.8096 11.2835 18.4894 11.2831 20.1693 11.2839C20.235 11.2839 20.3006 11.2839 20.3683 11.284C20.9015 11.2842 21.4347 11.2845 21.968 11.2847C24.0477 11.2857 26.1273 11.2849 28.207 11.2826C30.5446 11.2801 32.8823 11.2788 35.2199 11.2795C36.4572 11.2799 37.6945 11.2796 38.9319 11.2779C39.9852 11.2765 41.0385 11.2764 42.0918 11.2781C42.6291 11.279 43.1664 11.2792 43.7037 11.2777C44.1959 11.2763 44.688 11.2768 45.1802 11.2787C45.3579 11.279 45.5357 11.2788 45.7134 11.2777C46.9693 11.2711 48.0158 11.3623 49.0226 12.2014C49.7513 12.9485 50.0295 13.8125 50.0283 14.8317C50.0293 14.9595 50.0293 14.9595 50.0303 15.0899C50.0322 15.3705 50.0325 15.6511 50.0328 15.9318C50.0334 16.1278 50.034 16.3239 50.0347 16.52C50.0359 16.9307 50.0363 17.3415 50.0361 17.7523C50.0361 18.2768 50.0388 18.8012 50.0422 19.3257C50.0443 19.7307 50.0447 20.1357 50.0446 20.5407C50.0448 20.734 50.0457 20.9272 50.0472 21.1205C50.0634 23.4002 50.0634 23.4002 49.2187 24.3409C49.1542 24.4159 49.0898 24.4909 49.0234 24.5682C48.0058 25.3897 46.7885 25.6074 45.5432 25.8774C45.3429 25.9221 45.1427 25.9669 44.9425 26.0117C44.4061 26.1316 43.8693 26.2496 43.3324 26.3673C42.7745 26.4899 42.2169 26.6142 41.6593 26.7384C40.75 26.9407 39.8406 27.142 38.931 27.3425C37.6801 27.6183 36.4297 27.8963 35.1795 28.175C34.8099 28.2574 34.4402 28.3398 34.0706 28.4221C33.9825 28.4418 33.8944 28.4614 33.8037 28.4816C32.4319 28.7872 31.0597 29.0909 29.6875 29.3946C29.686 29.5099 29.6846 29.6251 29.6831 29.7439C29.6775 30.1731 29.6699 30.6022 29.6618 31.0313C29.6586 31.2168 29.6558 31.4022 29.6536 31.5877C29.6503 31.8549 29.6452 32.122 29.6398 32.3891C29.6391 32.4716 29.6385 32.554 29.6379 32.6389C29.6259 33.123 29.5707 33.4705 29.2968 33.8868C28.5758 34.3073 27.7391 34.2223 26.9287 34.2187C26.774 34.2189 26.6194 34.2191 26.4647 34.2195C26.1416 34.2199 25.8186 34.2193 25.4955 34.2179C25.0831 34.2163 24.6707 34.2172 24.2583 34.219C23.9393 34.2201 23.6202 34.2197 23.3012 34.219C23.1492 34.2188 22.9972 34.219 22.8452 34.2197C21.2833 34.2252 21.2833 34.2252 20.7031 33.8868C20.3787 33.3938 20.3645 32.9593 20.3601 32.3891C20.3584 32.3033 20.3566 32.2174 20.3548 32.1289C20.3496 31.8563 20.3462 31.5837 20.343 31.3111C20.3397 31.1256 20.3364 30.9401 20.3329 30.7545C20.3246 30.3012 20.3181 29.8479 20.3125 29.3946C20.1908 29.3675 20.0692 29.3404 19.9439 29.3124C19.4619 29.205 18.98 29.0975 18.498 28.99C18.2744 28.9402 18.0507 28.8903 17.8271 28.8404C16.4753 28.539 15.1235 28.2373 13.7719 27.935C13.27 27.8227 12.768 27.7105 12.2661 27.5983C12.0791 27.5564 12.0791 27.5564 11.8884 27.5138C10.3924 27.1793 8.89605 26.847 7.39866 26.5192C6.9176 26.4137 6.43672 26.3074 5.95586 26.201C5.52422 26.1056 5.09232 26.0115 4.66018 25.9184C4.33584 25.8481 4.01196 25.7758 3.688 25.7039C3.57711 25.6805 3.46621 25.6571 3.35195 25.633C2.1911 25.3708 1.10618 24.9226 0.439789 23.8961C0.0657588 23.2497 -0.0148864 22.7531 -0.0173307 22.007C-0.0179724 21.9218 -0.0186141 21.8367 -0.0192753 21.7489C-0.0211991 21.4672 -0.0223407 21.1855 -0.023315 20.9038C-0.023713 20.8074 -0.0241108 20.7109 -0.0245209 20.6115C-0.0265569 20.1007 -0.0279541 19.5898 -0.0288701 19.079C-0.0299489 18.5529 -0.0333066 18.0269 -0.0371876 17.5009C-0.0397487 17.0951 -0.0405595 16.6893 -0.0409095 16.2834C-0.0413834 16.0896 -0.0425135 15.8958 -0.0443308 15.702C-0.0561371 14.3593 -0.00969156 13.2262 0.976517 12.2071C2.06172 11.3041 3.18013 11.2855 4.52337 11.2903ZM2.45613 14.1298C2.29242 14.4585 2.3013 14.7754 2.3027 15.1346C2.30187 15.2128 2.30104 15.291 2.30019 15.3715C2.29791 15.6297 2.29781 15.8879 2.29793 16.1462C2.29723 16.3259 2.29648 16.5057 2.29568 16.6854C2.29436 17.0623 2.29421 17.439 2.29478 17.8158C2.29536 18.2982 2.29237 18.7804 2.28842 19.2627C2.28589 19.634 2.28561 20.0052 2.28597 20.3766C2.2858 20.5543 2.28486 20.7321 2.28312 20.9099C2.28096 21.1589 2.2819 21.4076 2.28362 21.6566C2.28233 21.7297 2.28103 21.8028 2.2797 21.8781C2.28636 22.2946 2.35437 22.617 2.6498 22.9242C3.06826 23.2061 3.57806 23.2751 4.06428 23.3771C4.25569 23.4202 4.44711 23.4633 4.63851 23.5065C4.84183 23.5519 5.04535 23.5962 5.24897 23.6402C5.65807 23.7288 6.06623 23.8212 6.47429 23.9144C7.26898 24.0957 8.06442 24.2734 8.86003 24.4506C9.17568 24.5209 9.49131 24.5914 9.80693 24.6619C10.5501 24.8278 11.2933 24.9935 12.0366 25.159C12.8016 25.3293 13.5666 25.5001 14.3315 25.6711C14.9931 25.8189 15.6547 25.9666 16.3164 26.114C16.7096 26.2016 17.1029 26.2893 17.4961 26.3773C17.8633 26.4594 18.2306 26.5412 18.598 26.6228C18.7327 26.6528 18.8674 26.6828 19.002 26.713C19.1854 26.7541 19.3688 26.7948 19.5523 26.8354C19.6549 26.8583 19.7575 26.8812 19.8633 26.9048C20.122 26.9623 20.122 26.9623 20.4101 26.9532C20.4138 26.8743 20.4174 26.7953 20.4212 26.714C20.4308 26.5575 20.4308 26.5575 20.4406 26.3978C20.4491 26.2431 20.4491 26.2431 20.4578 26.0853C20.5124 25.7529 20.6018 25.5629 20.8007 25.293C21.1575 25.0552 21.4239 25.0688 21.8364 25.0693C21.9496 25.0684 21.9496 25.0684 22.065 25.0674C22.3147 25.0655 22.5644 25.0651 22.8141 25.0649C22.9877 25.0643 23.1613 25.0636 23.3348 25.0629C23.6988 25.0618 24.0628 25.0614 24.4268 25.0615C24.8931 25.0615 25.3592 25.0589 25.8254 25.0555C26.184 25.0533 26.5425 25.0529 26.9011 25.0531C27.073 25.0528 27.2448 25.052 27.4167 25.0504C27.6573 25.0485 27.8977 25.0491 28.1383 25.0503C28.2445 25.0486 28.2445 25.0486 28.3529 25.0469C28.7009 25.0513 28.8951 25.0907 29.1922 25.2777C29.6188 25.7219 29.5458 26.3691 29.5898 26.9532C30.4023 26.8261 31.2036 26.6686 32.0059 26.4881C32.1836 26.4485 32.1836 26.4485 32.365 26.4081C32.6872 26.3363 33.0094 26.2642 33.3315 26.1919C33.6734 26.1153 34.0154 26.039 34.3574 25.9627C34.9337 25.8341 35.5101 25.7052 36.0863 25.5761C36.6707 25.4452 37.2551 25.3145 37.8395 25.184C37.9109 25.1681 37.9822 25.1522 38.0558 25.1357C38.1994 25.1037 38.343 25.0716 38.4866 25.0395C39.7241 24.7632 40.9615 24.4862 42.1987 24.2081C42.9133 24.0475 43.6281 23.8876 44.3433 23.7296C44.6706 23.6571 44.9977 23.5841 45.3248 23.5109C45.4662 23.4794 45.6077 23.4482 45.7492 23.4173C45.9356 23.3767 46.1216 23.3349 46.3077 23.293C46.407 23.2711 46.5064 23.2491 46.6087 23.2265C46.9813 23.1119 47.2545 22.9543 47.5378 22.6868C47.7099 22.3586 47.6978 22.0422 47.6957 21.6803C47.6963 21.602 47.697 21.5237 47.6977 21.443C47.6995 21.1843 47.6991 20.9256 47.6985 20.6669C47.699 20.4869 47.6995 20.307 47.7001 20.127C47.701 19.7497 47.7007 19.3725 47.6998 18.9953C47.6986 18.5121 47.7006 18.029 47.7035 17.5459C47.7053 17.1741 47.7052 16.8024 47.7047 16.4307C47.7047 16.2526 47.7052 16.0744 47.7065 15.8963C47.7079 15.6471 47.7069 15.398 47.7052 15.1488C47.7061 15.0754 47.7071 15.002 47.7081 14.9263C47.7032 14.5825 47.6657 14.3714 47.4883 14.074C47.052 13.669 46.6127 13.6435 46.0386 13.6471C45.9647 13.6468 45.8908 13.6465 45.8146 13.6461C45.5661 13.6453 45.3176 13.6459 45.069 13.6465C44.8894 13.6462 44.7097 13.6458 44.53 13.6453C44.0357 13.6443 43.5413 13.6446 43.047 13.645C42.5141 13.6452 41.9812 13.6443 41.4483 13.6436C40.4041 13.6424 39.3599 13.6422 38.3156 13.6424C37.4671 13.6426 36.6186 13.6424 35.7701 13.642C35.6494 13.6419 35.5288 13.6419 35.4045 13.6418C35.1594 13.6417 34.9143 13.6416 34.6693 13.6415C32.6319 13.6405 30.5944 13.6405 28.557 13.641C28.4922 13.641 28.4274 13.641 28.3606 13.6411C28.2296 13.6411 28.0985 13.6411 27.9674 13.6412C25.9278 13.6417 23.8882 13.6409 21.8486 13.6391C19.5575 13.6371 17.2665 13.636 14.9755 13.6364C13.7623 13.6366 12.549 13.6364 11.3358 13.635C10.303 13.6338 9.27022 13.6337 8.23743 13.6349C7.71026 13.6355 7.18311 13.6356 6.65595 13.6344C6.17363 13.6333 5.69133 13.6336 5.20901 13.635C5.03427 13.6353 4.85953 13.635 4.68479 13.6342C4.44769 13.6333 4.21066 13.6341 3.97355 13.6353C3.87126 13.6343 3.87126 13.6343 3.76689 13.6332C3.2403 13.639 2.84685 13.7729 2.45613 14.1298ZM22.7539 27.3438C22.7539 28.794 22.7539 30.2442 22.7539 31.7383C24.2363 31.7383 25.7187 31.7383 27.246 31.7383C27.246 30.2881 27.246 28.838 27.246 27.3438C25.7636 27.3438 24.2812 27.3438 22.7539 27.3438Z" fill="white"/>
<path d="M2.73441 27.2462C3.03398 27.4144 3.26206 27.618 3.418 27.9298C3.42794 28.1287 3.43146 28.3279 3.43214 28.5271C3.43281 28.6545 3.43348 28.782 3.43418 28.9133C3.43444 29.0554 3.4347 29.1975 3.43495 29.3396C3.43557 29.4886 3.43623 29.6376 3.43693 29.7866C3.43836 30.1081 3.43951 30.4295 3.44044 30.7509C3.44195 31.2594 3.44429 31.7678 3.44678 32.2763C3.45374 33.7224 3.45956 35.1685 3.46456 36.6145C3.46733 37.4128 3.47079 38.211 3.47498 39.0093C3.47759 39.5145 3.47934 40.0196 3.48045 40.5248C3.48134 40.8397 3.48304 41.1546 3.48496 41.4695C3.48569 41.6152 3.48609 41.7609 3.48613 41.9066C3.48624 42.106 3.48765 42.3055 3.48912 42.505C3.48953 42.6164 3.48995 42.7279 3.49037 42.8427C3.52428 43.2739 3.55849 43.6906 3.87009 44.0119C4.19024 44.1901 4.43522 44.1777 4.80105 44.1782C4.87193 44.1787 4.9428 44.1791 5.01582 44.1796C5.25458 44.1809 5.49329 44.1801 5.73205 44.1793C5.90445 44.1798 6.07684 44.1804 6.24923 44.1811C6.72396 44.1827 7.19868 44.1825 7.67341 44.1819C8.185 44.1817 8.69658 44.1831 9.20817 44.1843C10.2108 44.1863 11.2134 44.1868 12.216 44.1866C13.0307 44.1865 13.8454 44.1868 14.6601 44.1876C14.8945 44.1878 15.1288 44.188 15.3632 44.1882C15.4799 44.1883 15.5965 44.1884 15.7167 44.1885C17.9243 44.1903 20.1319 44.1902 22.3395 44.1896C24.3606 44.189 26.3816 44.1911 28.4027 44.1943C30.4764 44.1976 32.55 44.1991 34.6237 44.1986C35.7885 44.1984 36.9533 44.1989 38.1182 44.2013C39.1098 44.2034 40.1013 44.2038 41.0929 44.2019C41.5991 44.201 42.1053 44.2009 42.6115 44.2029C43.0745 44.2047 43.5375 44.2043 44.0006 44.2021C44.1684 44.2017 44.3363 44.2021 44.5041 44.2034C44.7317 44.2051 44.9591 44.2038 45.1867 44.2017C45.3766 44.2017 45.3766 44.2017 45.5703 44.2017C45.9836 44.1249 46.1272 43.976 46.3868 43.6525C46.5096 43.285 46.4966 42.9166 46.4966 42.5311C46.4968 42.4031 46.4971 42.2751 46.4973 42.1432C46.4971 42.002 46.4969 41.8608 46.4967 41.7196C46.4968 41.5704 46.497 41.4212 46.4973 41.272C46.4977 40.951 46.4979 40.6301 46.4979 40.3091C46.498 39.8015 46.4993 39.2939 46.5008 38.7862C46.501 38.7005 46.5013 38.6148 46.5015 38.5264C46.5021 38.3512 46.5026 38.1759 46.5031 38.0006C46.5065 36.8191 46.5091 35.6376 46.5089 34.456C46.5087 33.6586 46.5103 32.8611 46.5138 32.0636C46.5156 31.6418 46.5165 31.22 46.5153 30.7982C46.5142 30.4015 46.5154 30.0048 46.5182 29.6081C46.5189 29.4627 46.5187 29.3173 46.5176 29.1719C46.5092 27.9362 46.5092 27.9362 46.8179 27.5519C47.1992 27.2377 47.4353 27.2122 47.9176 27.2191C48.2745 27.2617 48.4699 27.3954 48.7305 27.6369C48.9059 28.0565 48.9505 28.415 48.9513 28.8674C48.952 28.9956 48.9527 29.1237 48.9534 29.2557C48.9531 29.3965 48.9529 29.5373 48.9526 29.6781C48.9531 29.8274 48.9536 29.9766 48.9541 30.1259C48.9555 30.5304 48.9555 30.935 48.9553 31.3396C48.9552 31.6781 48.9556 32.0166 48.9561 32.3551C48.9572 33.1544 48.9572 33.9538 48.9566 34.7532C48.9561 35.5756 48.9573 36.398 48.9593 37.2204C48.9611 37.9282 48.9616 38.6359 48.9613 39.3436C48.9611 39.7655 48.9614 40.1875 48.9628 40.6094C48.964 41.0068 48.9638 41.4042 48.9625 41.8016C48.9623 41.9467 48.9626 42.0917 48.9634 42.2367C48.9705 43.6057 48.833 44.7765 47.8516 45.8009C46.9475 46.4961 46.0061 46.6918 44.8808 46.6924C44.7757 46.6926 44.7757 46.6926 44.6685 46.6929C44.4343 46.6934 44.2002 46.6931 43.966 46.6929C43.7962 46.6931 43.6264 46.6933 43.4566 46.6936C42.9903 46.6942 42.5241 46.6941 42.0578 46.694C41.5548 46.694 41.0518 46.6945 40.5488 46.695C39.5634 46.6958 38.5781 46.6961 37.5927 46.6961C36.7918 46.6962 35.9908 46.6964 35.1898 46.6967C32.9188 46.6976 30.6478 46.698 28.3767 46.6979C28.2543 46.6979 28.1319 46.6979 28.0057 46.6979C27.8219 46.6979 27.8219 46.6979 27.6343 46.6979C25.6477 46.6979 23.6612 46.6988 21.6746 46.7002C19.6347 46.7016 17.5948 46.7023 15.5549 46.7022C14.4097 46.7021 13.2645 46.7024 12.1193 46.7035C11.1443 46.7043 10.1692 46.7046 9.1942 46.7039C8.69684 46.7036 8.19949 46.7036 7.70213 46.7044C7.24648 46.7052 6.79084 46.7051 6.33519 46.7042C6.1707 46.7041 6.00621 46.7042 5.84172 46.7048C4.60679 46.7086 3.50213 46.6976 2.44144 45.9962C2.35483 45.9398 2.26822 45.8834 2.17899 45.8253C1.3266 44.996 1.07003 44.0028 1.03705 42.8364C1.03423 42.566 1.03512 42.2957 1.03634 42.0252C1.03594 41.8751 1.03542 41.725 1.03479 41.5749C1.03346 41.1707 1.03396 40.7666 1.0349 40.3625C1.03564 39.9381 1.03495 39.5137 1.03449 39.0892C1.03396 38.3773 1.03466 37.6654 1.03605 36.9534C1.03765 36.1314 1.03713 35.3094 1.03552 34.4874C1.03419 33.7797 1.034 33.072 1.03477 32.3643C1.03523 31.9424 1.03529 31.5205 1.03432 31.0987C1.03347 30.7025 1.03406 30.3063 1.03575 29.91C1.03614 29.765 1.03603 29.6199 1.03538 29.4748C1.02982 28.1019 1.02982 28.1019 1.36722 27.5392C1.75755 27.1833 2.22975 27.1487 2.73441 27.2462Z" fill="white"/>
<path d="M20.3676 3.30612C20.5338 3.30563 20.5338 3.30563 20.7033 3.30513C21.068 3.3042 21.4327 3.30401 21.7974 3.3039C22.0521 3.30359 22.3068 3.30326 22.5615 3.30292C23.0948 3.3023 23.6281 3.30215 24.1614 3.30221C24.7755 3.30227 25.3896 3.30124 26.0037 3.2997C26.5971 3.29826 27.1906 3.29792 27.7841 3.29797C28.0353 3.29786 28.2866 3.29743 28.5378 3.29667C28.89 3.29571 29.2421 3.296 29.5942 3.29658C29.7482 3.29576 29.7482 3.29576 29.9053 3.29492C31.0793 3.29986 32.1813 3.4551 33.0931 4.24804C33.1616 4.32861 33.2301 4.40917 33.3007 4.49218C33.3671 4.56268 33.4336 4.63317 33.5021 4.70581C34.2118 5.73609 34.3005 7.01247 34.1529 8.22753C34.0834 8.53142 33.9789 8.69704 33.7645 8.92334C33.3359 9.1766 33.0448 9.20291 32.556 9.11865C32.1818 8.96617 32.0466 8.83664 31.8358 8.49609C31.6925 8.02755 31.7045 7.53686 31.6876 7.0507C31.6726 6.5187 31.6726 6.5187 31.4452 6.05468C31.1399 5.86597 30.9065 5.83486 30.5505 5.83457C30.4486 5.83402 30.3468 5.83347 30.2418 5.8329C30.1306 5.83329 30.0194 5.83369 29.9048 5.8341C29.7873 5.83376 29.6697 5.83341 29.5486 5.83306C29.2266 5.83235 28.9046 5.83252 28.5826 5.83313C28.2455 5.83363 27.9083 5.83317 27.5712 5.83286C27.0051 5.83251 26.439 5.83298 25.8729 5.83391C25.2185 5.83497 24.5642 5.83463 23.9098 5.83355C23.3478 5.83266 22.7859 5.83254 22.2239 5.83305C21.8883 5.83335 21.5527 5.8334 21.2172 5.83275C20.8431 5.83208 20.469 5.83301 20.0949 5.8341C19.9281 5.8335 19.9281 5.8335 19.7579 5.8329C19.6051 5.83373 19.6051 5.83373 19.4493 5.83457C19.3608 5.83464 19.2724 5.83472 19.1813 5.83479C18.9276 5.86121 18.7705 5.92115 18.5546 6.05468C18.2514 6.45272 18.3214 6.99563 18.3125 7.47432C18.2918 8.04329 18.2033 8.54632 17.7916 8.97216C17.3886 9.17945 17.0828 9.19533 16.6381 9.11865C16.2617 8.96532 16.1265 8.84123 15.9179 8.49609C15.6123 7.31214 15.7955 5.96549 16.3714 4.89807C16.5462 4.62001 16.7422 4.41162 16.9921 4.19921C17.0626 4.13275 17.1331 4.06628 17.2057 3.9978C18.1768 3.32882 19.2293 3.30563 20.3676 3.30612Z" fill="white"/>
</g>
<defs>
<clipPath id="clip0_265_1655">
<rect width="50" height="50" fill="white"/>
</clipPath>
</defs>
</svg>
