<svg width="50" height="50" viewBox="0 0 50 50" fill="none" xmlns="http://www.w3.org/2000/svg">
<path d="M8.08139 7.77985C8.21877 7.77887 8.21877 7.77887 8.35893 7.77788C8.55206 7.77689 8.7452 7.77643 8.93834 7.77646C9.23391 7.77603 9.52935 7.77248 9.82489 7.76878C10.0128 7.76821 10.2006 7.76782 10.3885 7.76764C10.4768 7.76624 10.5651 7.76483 10.6561 7.76339C11.2676 7.76784 11.2676 7.76784 11.5789 7.99857C11.7299 8.21965 11.7717 8.32875 11.7675 8.5939C11.769 8.69058 11.769 8.69058 11.7706 8.78922C11.6924 9.08365 11.5691 9.18906 11.3281 9.37515C11.0524 9.41368 10.8135 9.42965 10.5381 9.4278C10.4617 9.42895 10.3854 9.4301 10.3068 9.43129C10.0633 9.43473 9.81988 9.43563 9.57637 9.43619C9.33323 9.43779 9.09013 9.43995 8.84701 9.44318C8.69594 9.44509 8.54485 9.44601 8.39377 9.44581C7.9985 9.4497 7.66572 9.45854 7.32417 9.66812C7.12625 10.0522 7.10433 10.3768 7.10406 10.805C7.10375 10.8689 7.10345 10.9328 7.10313 10.9986C7.10236 11.2119 7.10297 11.4251 7.10359 11.6384C7.10332 11.7916 7.10297 11.9449 7.10255 12.0981C7.10166 12.5137 7.102 12.9293 7.10262 13.345C7.10312 13.7801 7.10266 14.2151 7.10235 14.6502C7.102 15.3809 7.10246 16.1115 7.10339 16.8421C7.10446 17.6867 7.10411 18.5313 7.10304 19.3758C7.10215 20.1011 7.10203 20.8264 7.10254 21.5517C7.10284 21.9848 7.10288 22.4179 7.10224 22.851C7.10167 23.2582 7.10207 23.6654 7.10319 24.0726C7.10345 24.222 7.10338 24.3714 7.10295 24.5208C7.10241 24.7248 7.10308 24.9288 7.10406 25.1328C7.10417 25.304 7.10417 25.304 7.10428 25.4787C7.1291 25.7844 7.18507 25.9975 7.32417 26.2697C7.7678 26.565 8.32631 26.4796 8.83746 26.4677C9.04326 26.4663 9.24907 26.4652 9.45487 26.4644C9.77705 26.4624 10.0988 26.459 10.4209 26.4506C12.495 26.4011 12.495 26.4011 13.309 27.1062C13.4117 27.205 13.5135 27.3047 13.6142 27.4055C13.8581 27.6808 13.8581 27.6808 14.2578 27.6369C14.4033 27.5148 14.5481 27.3917 14.6868 27.262C15.5488 26.4698 16.2853 26.4027 17.4194 26.42C17.5893 26.4193 17.7592 26.4182 17.9292 26.4169C18.2832 26.4153 18.6369 26.4175 18.9908 26.4226C19.4408 26.4287 19.8902 26.4252 20.3401 26.4188C20.6904 26.4149 21.0405 26.4161 21.3908 26.4189C21.5565 26.4196 21.7222 26.4188 21.8878 26.4162C23.0401 26.4025 23.6823 26.6134 24.5305 27.4069C24.7949 27.6787 24.7949 27.6787 25.1953 27.6369C25.3408 27.5148 25.4856 27.3917 25.6243 27.262C26.4863 26.4698 27.2228 26.4027 28.3569 26.42C28.5268 26.4193 28.6967 26.4182 28.8667 26.4169C29.2207 26.4153 29.5744 26.4175 29.9283 26.4226C30.3783 26.4287 30.8277 26.4252 31.2776 26.4188C31.6279 26.4149 31.978 26.4161 32.3283 26.4189C32.494 26.4196 32.6597 26.4188 32.8253 26.4162C33.9776 26.4025 34.6198 26.6134 35.468 27.4069C35.7324 27.6787 35.7324 27.6787 36.1328 27.6369C36.2676 27.5135 36.4019 27.3893 36.5311 27.26C37.3577 26.4645 38.1545 26.4344 39.2625 26.4431C39.4746 26.4481 39.6866 26.4534 39.8986 26.4589C40.2188 26.4624 40.5389 26.4644 40.8591 26.4657C41.0569 26.467 41.2547 26.4698 41.4525 26.4745C42.0939 26.5009 42.0939 26.5009 42.6757 26.2697C42.8724 25.8847 42.8956 25.5614 42.8958 25.1328C42.8962 25.0689 42.8965 25.005 42.8968 24.9392C42.8975 24.7259 42.8969 24.5127 42.8963 24.2994C42.8966 24.1462 42.8969 23.993 42.8974 23.8397C42.8982 23.4241 42.8979 23.0085 42.8973 22.5928C42.8968 22.1577 42.8972 21.7227 42.8976 21.2876C42.8979 20.5569 42.8974 19.8263 42.8965 19.0957C42.8954 18.2511 42.8958 17.4065 42.8969 16.562C42.8978 15.8367 42.8979 15.1114 42.8974 14.3861C42.8971 13.953 42.897 13.5199 42.8977 13.0868C42.8982 12.6796 42.8978 12.2724 42.8967 11.8652C42.8965 11.7158 42.8965 11.5664 42.897 11.417C42.8975 11.213 42.8968 11.009 42.8958 10.805C42.8958 10.6909 42.8957 10.5767 42.8956 10.4591C42.8702 10.1459 42.8349 9.93934 42.6757 9.66812C42.3362 9.49934 42.0599 9.44839 41.6831 9.44834C41.5831 9.44786 41.483 9.44737 41.3799 9.44686C41.2706 9.44732 41.1614 9.44778 41.0488 9.44824C40.9322 9.44795 40.8156 9.44766 40.6955 9.44737C40.3722 9.44675 40.049 9.447 39.7257 9.44761C39.377 9.44805 39.0282 9.44737 38.6794 9.4468C38.0752 9.44596 37.471 9.44578 36.8668 9.44601C35.9928 9.44632 35.1187 9.44518 34.2447 9.44362C32.8261 9.44108 31.4075 9.43913 29.9889 9.43781C29.904 9.43773 29.8191 9.43765 29.7316 9.43757C28.5261 9.43647 27.3206 9.43596 26.115 9.43568C26.0301 9.43566 25.9452 9.43564 25.8577 9.43562C25.7728 9.4356 25.688 9.43558 25.6006 9.43556C24.1872 9.43519 22.7738 9.43333 21.3604 9.43024C20.4883 9.42839 19.6163 9.42781 18.7442 9.42885C18.147 9.42947 17.5498 9.42869 16.9526 9.4268C16.6078 9.42575 16.263 9.42535 15.9182 9.42665C15.5448 9.42804 15.1715 9.42643 14.7981 9.42452C14.6886 9.42541 14.5791 9.4263 14.4663 9.42722C14.3166 9.42573 14.3166 9.42573 14.1639 9.4242C14.0777 9.42416 13.9914 9.42411 13.9026 9.42407C13.5958 9.35904 13.4773 9.22349 13.2812 8.98453C13.2293 8.78922 13.2293 8.78922 13.2324 8.5939C13.2309 8.49722 13.2309 8.49722 13.2293 8.39859C13.3047 8.11476 13.4482 7.99896 13.6718 7.81265C13.9067 7.76369 13.9067 7.76369 14.1737 7.7635C14.2757 7.76248 14.3777 7.76146 14.4828 7.76041C14.5948 7.76128 14.7067 7.76215 14.8221 7.76305C14.9411 7.76244 15.0601 7.76183 15.1827 7.7612C15.5133 7.75991 15.8438 7.76038 16.1743 7.76159C16.5307 7.76247 16.8871 7.76111 17.2436 7.76003C17.942 7.7583 18.6404 7.75867 19.3388 7.75981C19.9065 7.76069 20.4742 7.76081 21.042 7.76038C21.1227 7.76032 21.2035 7.76026 21.2867 7.7602C21.4508 7.76008 21.6148 7.75995 21.7789 7.75982C23.3183 7.75871 24.8576 7.75999 26.397 7.76209C27.7174 7.76383 29.0379 7.76353 30.3583 7.76173C31.8915 7.75964 33.4247 7.75881 34.9579 7.76001C35.1215 7.76014 35.285 7.76026 35.4486 7.76038C35.5291 7.76044 35.6096 7.7605 35.6925 7.76056C36.2593 7.7609 36.826 7.76033 37.3928 7.75941C38.084 7.75832 38.7751 7.75862 39.4662 7.7607C39.8188 7.76172 40.1713 7.76213 40.5239 7.76083C40.9063 7.75945 41.2887 7.7611 41.6712 7.76305C41.7823 7.76218 41.8934 7.76131 42.0078 7.76041C42.7629 7.76788 43.2876 7.88372 43.8713 8.39516C43.9239 8.45873 43.9765 8.5223 44.0307 8.5878C44.0848 8.65112 44.139 8.71444 44.1947 8.77968C44.5083 9.23474 44.5559 9.62392 44.5573 10.1714C44.5578 10.2406 44.5582 10.3099 44.5587 10.3812C44.5599 10.6127 44.5597 10.8442 44.5596 11.0757C44.5602 11.2419 44.5608 11.4081 44.5616 11.5743C44.5633 12.0255 44.5637 12.4766 44.5639 12.9278C44.564 13.2098 44.5644 13.4918 44.5649 13.7738C44.5667 14.7581 44.5675 15.7423 44.5674 16.7266C44.5673 17.6434 44.5693 18.5601 44.5724 19.4769C44.575 20.2646 44.576 21.0522 44.5759 21.8399C44.5759 22.3101 44.5764 22.7803 44.5785 23.2504C44.5804 23.6928 44.5804 24.1352 44.579 24.5776C44.5788 24.7396 44.5792 24.9016 44.5804 25.0637C44.5918 26.7314 44.5918 26.7314 43.9487 27.4652C43.8851 27.5178 43.8216 27.5705 43.7561 27.6247C43.6927 27.6788 43.6294 27.7329 43.5642 27.7887C43.0047 28.1742 42.5118 28.1394 41.8563 28.1175C41.6519 28.1147 41.4474 28.1123 41.2429 28.1103C40.9232 28.1065 40.6042 28.1009 40.2847 28.0887C39.0583 28.0447 38.1692 28.0727 37.2146 28.9079C37.0241 29.086 36.8391 29.2662 36.6596 29.4553C36.4285 29.6838 36.3035 29.6903 35.9691 29.7258C35.4724 29.7191 35.2069 29.4922 34.8449 29.175C34.7873 29.127 34.7297 29.079 34.6704 29.0296C34.5623 28.9394 34.4548 28.8484 34.3482 28.7564C34.2926 28.7092 34.2369 28.662 34.1796 28.6134C34.1084 28.5474 34.0372 28.4814 33.9638 28.4133C33.6398 28.1868 33.4625 28.1685 33.0706 28.1568C32.947 28.1524 32.8233 28.148 32.6959 28.1435C32.5613 28.1409 32.4267 28.1387 32.2921 28.1366C32.2235 28.1353 32.1549 28.1339 32.0843 28.1325C31.7202 28.1255 31.3561 28.1209 30.992 28.1182C30.6938 28.1157 30.3962 28.1089 30.0982 28.0982C28.0169 27.9825 28.0169 27.9825 26.2222 28.9072C26.0422 29.0842 25.8714 29.2626 25.7082 29.4552C25.4929 29.6925 25.3589 29.691 25.0316 29.7258C24.5349 29.7191 24.2694 29.4922 23.9074 29.175C23.8498 29.127 23.7922 29.079 23.7329 29.0296C23.6248 28.9394 23.5173 28.8484 23.4107 28.7564C23.3551 28.7092 23.2994 28.662 23.2421 28.6134C23.1709 28.5474 23.0997 28.4814 23.0263 28.4133C22.7023 28.1868 22.525 28.1685 22.1331 28.1568C22.0095 28.1524 21.8858 28.148 21.7584 28.1435C21.6238 28.1409 21.4892 28.1387 21.3546 28.1366C21.286 28.1353 21.2174 28.1339 21.1468 28.1325C20.7827 28.1255 20.4186 28.1209 20.0545 28.1182C19.7563 28.1157 19.4587 28.1089 19.1607 28.0982C17.0794 27.9825 17.0794 27.9825 15.2847 28.9072C15.1047 29.0842 14.9339 29.2626 14.7707 29.4552C14.5554 29.6925 14.4214 29.691 14.0941 29.7258C13.5974 29.7191 13.3319 29.4922 12.9699 29.175C12.9123 29.127 12.8547 29.079 12.7954 29.0296C12.6873 28.9394 12.5798 28.8484 12.4732 28.7564C12.4176 28.7092 12.3619 28.662 12.3046 28.6134C12.2391 28.5443 12.1735 28.4752 12.1059 28.4039C11.6718 28.1324 11.2728 28.1713 10.7707 28.177C10.6692 28.1763 10.5677 28.1757 10.4632 28.1749C10.03 28.1721 9.59687 28.1737 9.16369 28.1749C8.84689 28.1751 8.53016 28.1731 8.21338 28.1709C8.06792 28.1726 8.06792 28.1726 7.91953 28.1743C7.19961 28.1691 6.6754 28.0218 6.12864 27.5427C6.04971 27.4473 6.04971 27.4473 5.96919 27.35C5.91506 27.2867 5.86093 27.2234 5.80516 27.1581C5.49161 26.7031 5.44403 26.3139 5.44259 25.7664C5.44214 25.6972 5.4417 25.6279 5.44124 25.5566C5.44001 25.3251 5.44017 25.0936 5.44033 24.8621C5.43975 24.6959 5.43908 24.5297 5.43834 24.3635C5.43662 23.9123 5.43616 23.4612 5.43603 23.01C5.4359 22.728 5.43548 22.446 5.43496 22.164C5.43315 21.1797 5.43236 20.1955 5.43251 19.2112C5.43263 18.2944 5.43057 17.3777 5.42748 16.4609C5.42493 15.6732 5.42388 14.8856 5.424 14.0979C5.42405 13.6277 5.4235 13.1576 5.42143 12.6874C5.41954 12.245 5.41953 11.8026 5.42095 11.3602C5.42115 11.1982 5.42069 11.0362 5.41951 10.8741C5.40813 9.20645 5.40813 9.20645 6.05121 8.4726C6.11478 8.41998 6.17835 8.36736 6.24385 8.31314C6.30717 8.25901 6.37049 8.20488 6.43573 8.14911C6.96687 7.78314 7.45655 7.78139 8.08139 7.77985Z" fill="white"/>
<path d="M37.4892 31.5178C38.304 32.0036 38.8112 32.6764 39.0624 33.5937C39.0855 33.8532 39.0995 34.0976 39.099 34.3567C39.0992 34.4254 39.0993 34.4941 39.0994 34.5648C39.0893 35.0631 39.0014 35.4377 38.7572 35.8692C38.6494 36.0475 38.6494 36.0475 38.6718 36.3281C38.8668 36.5034 38.8668 36.5034 39.1173 36.676C39.8639 37.2534 40.4697 38.0127 40.6249 38.9648C40.7641 40.6754 40.7641 40.6754 40.2343 41.3086C39.7821 41.7816 39.3545 42.1516 38.6814 42.2136C38.5253 42.2147 38.5253 42.2147 38.3659 42.2159C38.2473 42.2171 38.1286 42.2184 38.0063 42.2196C37.8789 42.2199 37.7514 42.2201 37.6201 42.2203C37.4869 42.2209 37.3537 42.2216 37.2205 42.2223C36.9417 42.2234 36.6628 42.2238 36.384 42.2237C36.0284 42.2237 35.6728 42.2263 35.3172 42.2297C35.0422 42.2319 34.7671 42.2323 34.4921 42.2322C34.2978 42.2325 34.1035 42.2346 33.9092 42.2368C33.0941 42.2327 32.5401 42.1572 31.9099 41.605C31.8572 41.5414 31.8046 41.4778 31.7504 41.4123C31.6963 41.349 31.6421 41.2857 31.5864 41.2205C31.125 40.5508 31.1743 39.7456 31.2499 38.9648C31.4644 37.9209 32.0734 37.1393 32.9394 36.5421C33.1192 36.4232 33.1192 36.4232 33.3007 36.2305C33.2601 36.151 33.2601 36.151 33.2187 36.0699C33.1833 36 33.1479 35.9301 33.1115 35.8581C33.0764 35.789 33.0412 35.7199 33.0051 35.6487C32.6783 34.9625 32.7134 34.0328 32.8792 33.2977C33.1973 32.4422 33.7528 31.8465 34.5702 31.4453C35.463 31.0859 36.6172 31.0993 37.4892 31.5178ZM34.6313 33.5571C34.416 34.0042 34.3947 34.3755 34.4726 34.8633C34.7001 35.3358 34.9766 35.6123 35.4491 35.8398C35.9369 35.9177 36.3082 35.8964 36.7553 35.6811C37.1053 35.3645 37.3627 35.1109 37.4396 34.629C37.4646 34.074 37.396 33.7256 37.0116 33.3008C36.5868 32.9164 36.2384 32.8478 35.6834 32.8728C35.2015 32.9497 34.9479 33.2071 34.6313 33.5571ZM33.5322 38.2461C33.0523 38.7781 32.8628 39.2107 32.8784 39.9326C32.8976 40.1585 32.8976 40.1585 33.0871 40.3809C33.4094 40.6019 33.6672 40.6376 34.0479 40.6407C34.1399 40.6417 34.2318 40.6426 34.3265 40.6436C34.4257 40.644 34.5249 40.6444 34.6271 40.6448C34.7804 40.6457 34.7804 40.6457 34.9369 40.6465C35.1533 40.6474 35.3698 40.6481 35.5863 40.6485C35.9168 40.6494 36.2472 40.6524 36.5777 40.6555C36.7881 40.6561 36.9985 40.6567 37.2088 40.657C37.3074 40.6582 37.406 40.6594 37.5076 40.6607C38.0326 40.659 38.4171 40.6359 38.8671 40.332C39.0632 39.9398 39.0244 39.4644 38.9049 39.0503C38.6279 38.4255 38.1376 37.9735 37.5365 37.6587C36.2621 37.3233 34.5198 37.2515 33.5322 38.2461Z" fill="white"/>
<path d="M15.6142 31.5178C16.429 32.0036 16.9362 32.6764 17.1874 33.5937C17.2105 33.8532 17.2245 34.0976 17.224 34.3567C17.2242 34.4254 17.2243 34.4941 17.2244 34.5648C17.2143 35.0631 17.1264 35.4377 16.8822 35.8692C16.7744 36.0475 16.7744 36.0475 16.7968 36.3281C16.9918 36.5034 16.9918 36.5034 17.2423 36.676C17.9889 37.2534 18.5947 38.0127 18.7499 38.9648C18.8891 40.6754 18.8891 40.6754 18.3593 41.3086C17.9071 41.7816 17.4795 42.1516 16.8064 42.2136C16.6503 42.2147 16.6503 42.2147 16.4909 42.2159C16.3723 42.2171 16.2536 42.2184 16.1313 42.2196C16.0039 42.2199 15.8764 42.2201 15.7451 42.2203C15.6119 42.2209 15.4787 42.2216 15.3455 42.2223C15.0667 42.2234 14.7878 42.2238 14.509 42.2237C14.1534 42.2237 13.7978 42.2263 13.4422 42.2297C13.1672 42.2319 12.8921 42.2323 12.6171 42.2322C12.4228 42.2325 12.2285 42.2346 12.0342 42.2368C11.2191 42.2327 10.6651 42.1572 10.0349 41.605C9.98223 41.5414 9.92961 41.4778 9.8754 41.4123C9.82127 41.349 9.76714 41.2857 9.71137 41.2205C9.24997 40.5508 9.29929 39.7456 9.37491 38.9648C9.58935 37.9209 10.1984 37.1393 11.0644 36.5421C11.2442 36.4232 11.2442 36.4232 11.4257 36.2305C11.3851 36.151 11.3851 36.151 11.3437 36.0699C11.3083 36 11.2729 35.9301 11.2365 35.8581C11.2014 35.789 11.1662 35.7199 11.1301 35.6487C10.8033 34.9625 10.8384 34.0328 11.0042 33.2977C11.3223 32.4422 11.8778 31.8465 12.6952 31.4453C13.588 31.0859 14.7422 31.0993 15.6142 31.5178ZM12.7563 33.5571C12.541 34.0042 12.5197 34.3755 12.5976 34.8633C12.8251 35.3358 13.1016 35.6123 13.5741 35.8398C14.0619 35.9177 14.4332 35.8964 14.8803 35.6811C15.2303 35.3645 15.4877 35.1109 15.5646 34.629C15.5896 34.074 15.521 33.7256 15.1366 33.3008C14.7118 32.9164 14.3634 32.8478 13.8084 32.8728C13.3265 32.9497 13.0729 33.2071 12.7563 33.5571ZM11.6572 38.2461C11.1773 38.7781 10.9878 39.2107 11.0034 39.9326C11.0226 40.1585 11.0226 40.1585 11.2121 40.3809C11.5344 40.6019 11.7922 40.6376 12.1729 40.6407C12.2649 40.6417 12.3568 40.6426 12.4515 40.6436C12.5507 40.644 12.6499 40.6444 12.7521 40.6448C12.9054 40.6457 12.9054 40.6457 13.0619 40.6465C13.2783 40.6474 13.4948 40.6481 13.7113 40.6485C14.0418 40.6494 14.3722 40.6524 14.7027 40.6555C14.9131 40.6561 15.1235 40.6567 15.3338 40.657C15.4324 40.6582 15.531 40.6594 15.6326 40.6607C16.1576 40.659 16.5421 40.6359 16.9921 40.332C17.1882 39.9398 17.1494 39.4644 17.0299 39.0503C16.7529 38.4255 16.2626 37.9735 15.6615 37.6587C14.3871 37.3233 12.6448 37.2515 11.6572 38.2461Z" fill="white"/>
<path d="M26.5518 31.5178C27.3665 32.0036 27.8738 32.6764 28.125 33.5937C28.1481 33.8532 28.1621 34.0976 28.1616 34.3567C28.1617 34.4254 28.1618 34.4941 28.162 34.5648C28.1519 35.0631 28.064 35.4377 27.8198 35.8692C27.712 36.0475 27.712 36.0475 27.7344 36.3281C27.9294 36.5034 27.9294 36.5034 28.1799 36.676C28.9265 37.2534 29.5323 38.0127 29.6875 38.9648C29.8267 40.6754 29.8267 40.6754 29.2969 41.3086C28.8405 41.7859 28.4137 42.1499 27.736 42.2159C27.3916 42.2206 27.0473 42.2238 26.7029 42.2241C26.5826 42.2265 26.4623 42.2289 26.3384 42.2314C26.1651 42.2319 26.1651 42.2319 25.9884 42.2325C25.8831 42.2333 25.7777 42.2341 25.6692 42.2349C25.3259 42.1765 25.2126 42.0669 25 41.7969C24.9481 41.6016 24.9481 41.6016 24.9511 41.4062C24.9501 41.3418 24.9491 41.2773 24.9481 41.2109C25.0293 40.9051 25.1284 40.8061 25.3906 40.625C25.7136 40.5678 26.0337 40.5658 26.3611 40.564C27.1235 40.5752 27.1235 40.5752 27.832 40.332C28.0286 39.9388 27.9906 39.4609 27.8663 39.0469C27.5999 38.4558 27.1793 38.0565 26.6052 37.7624C25.5065 37.4525 24.0449 37.4133 23.0224 37.9639C22.5901 38.3176 22.2124 38.7024 22.0703 39.2578C21.9987 39.8079 21.9987 39.8079 22.1908 40.3007C22.4515 40.4957 22.7308 40.5547 23.0411 40.6403C23.2422 40.7226 23.2422 40.7226 23.4375 41.0156C23.5005 41.6769 23.5005 41.6769 23.3093 42.041C22.8263 42.3106 22.2778 42.2723 21.7529 42.1265C21.1512 41.8632 20.6919 41.3733 20.3933 40.7932C20.1395 39.9588 20.2343 38.9243 20.5738 38.1309C20.9328 37.4638 21.3796 36.9713 22.002 36.5421C22.1818 36.4232 22.1818 36.4232 22.3633 36.2305C22.3227 36.151 22.3227 36.151 22.2812 36.0699C22.2459 36 22.2105 35.9301 22.174 35.8581C22.1389 35.789 22.1038 35.7199 22.0676 35.6487C21.7409 34.9625 21.776 34.0328 21.9417 33.2977C22.2599 32.4422 22.8153 31.8465 23.6328 31.4453C24.5256 31.0859 25.6798 31.0993 26.5518 31.5178ZM23.6938 33.5571C23.4786 34.0042 23.4573 34.3755 23.5351 34.8633C23.7626 35.3358 24.0392 35.6123 24.5117 35.8398C24.9994 35.9177 25.3708 35.8964 25.8178 35.6811C26.1679 35.3645 26.4253 35.1109 26.5022 34.629C26.5272 34.074 26.4586 33.7256 26.0742 33.3008C25.6493 32.9164 25.301 32.8478 24.7459 32.8728C24.2641 32.9497 24.0105 33.2071 23.6938 33.5571Z" fill="white"/>
<path d="M17.7608 10.888C17.8597 10.8874 17.9587 10.8868 18.0606 10.8862C18.3932 10.8846 18.7258 10.8859 19.0583 10.8871C19.2964 10.8866 19.5344 10.8859 19.7724 10.885C20.3524 10.8834 20.9324 10.8837 21.5124 10.8848C21.9837 10.8857 22.4551 10.8858 22.9264 10.8854C22.9934 10.8853 23.0605 10.8853 23.1296 10.8852C23.2658 10.8851 23.402 10.8849 23.5382 10.8848C24.8158 10.8837 26.0933 10.885 27.3709 10.8871C28.4674 10.8888 29.5639 10.8885 30.6604 10.8867C31.9333 10.8846 33.2063 10.8838 34.4792 10.885C34.6149 10.8851 34.7507 10.8853 34.8864 10.8854C34.9531 10.8854 35.0199 10.8855 35.0887 10.8856C35.5595 10.8859 36.0303 10.8853 36.5012 10.8844C37.1347 10.8832 37.7683 10.8841 38.4018 10.8863C38.6347 10.8868 38.8676 10.8867 39.1005 10.8858C39.4177 10.8848 39.7348 10.8861 40.052 10.888C40.1912 10.8867 40.1912 10.8867 40.3333 10.8854C40.9551 10.8929 40.9551 10.8929 41.2681 11.1239C41.4175 11.3447 41.4593 11.4548 41.4552 11.7189C41.4567 11.8156 41.4567 11.8156 41.4583 11.9142C41.378 12.2162 41.2689 12.3133 41.0157 12.5002C40.6951 12.5597 40.3773 12.5528 40.052 12.5498C39.953 12.5504 39.8541 12.551 39.7521 12.5516C39.4195 12.5532 39.087 12.5519 38.7544 12.5507C38.5164 12.5512 38.2783 12.5519 38.0403 12.5528C37.4603 12.5544 36.8803 12.5541 36.3003 12.553C35.829 12.5521 35.3577 12.552 34.8864 12.5524C34.8193 12.5525 34.7523 12.5525 34.6832 12.5526C34.547 12.5527 34.4108 12.5529 34.2746 12.553C32.997 12.5541 31.7194 12.5528 30.4419 12.5507C29.3454 12.549 28.2489 12.5493 27.1524 12.5511C25.8794 12.5532 24.6065 12.554 23.3335 12.5528C23.1978 12.5527 23.0621 12.5525 22.9264 12.5524C22.8596 12.5524 22.7928 12.5523 22.724 12.5522C22.2532 12.5519 21.7824 12.5525 21.3116 12.5534C20.678 12.5546 20.0445 12.5537 19.4109 12.5515C19.178 12.551 18.9451 12.5511 18.7122 12.552C18.3951 12.553 18.078 12.5517 17.7608 12.5498C17.6215 12.5511 17.6215 12.5511 17.4795 12.5524C16.8577 12.5449 16.8577 12.5449 16.5447 12.3139C16.3953 12.0931 16.3534 11.983 16.3575 11.7189C16.356 11.6222 16.356 11.6222 16.3545 11.5236C16.543 10.814 17.1579 10.8824 17.7608 10.888Z" fill="white"/>
<path d="M9.82964 14.0129C9.95894 14.012 9.95894 14.012 10.0908 14.0111C10.3802 14.0095 10.6696 14.0108 10.959 14.012C11.1662 14.0115 11.3735 14.0108 11.5807 14.0099C12.144 14.0081 12.7073 14.0088 13.2707 14.0101C13.8596 14.0111 14.4485 14.0101 15.0375 14.0095C16.0266 14.0088 17.0156 14.0098 18.0047 14.0116C19.149 14.0137 20.2933 14.0131 21.4376 14.0109C22.4192 14.0091 23.4008 14.0089 24.3825 14.0099C24.9691 14.0105 25.5558 14.0106 26.1424 14.0093C26.6939 14.0082 27.2453 14.009 27.7968 14.0112C27.9995 14.0117 28.2021 14.0116 28.4048 14.0107C28.6809 14.0097 28.957 14.011 29.2331 14.0129C29.3138 14.0121 29.3944 14.0112 29.4776 14.0103C29.8327 14.0152 30.0361 14.0305 30.3231 14.2487C30.481 14.4701 30.5219 14.5749 30.5177 14.8438C30.5192 14.9405 30.5192 14.9405 30.5208 15.0391C30.4419 15.3359 30.3231 15.4388 30.0782 15.625C29.7846 15.6634 29.5267 15.6778 29.2331 15.6746C29.1469 15.6753 29.0607 15.6759 28.9719 15.6765C28.6825 15.6781 28.3932 15.6768 28.1038 15.6756C27.8965 15.6761 27.6893 15.6768 27.482 15.6777C26.9187 15.6794 26.3554 15.6787 25.7921 15.6775C25.2031 15.6765 24.6142 15.6774 24.0253 15.6781C23.0362 15.6788 22.0471 15.6778 21.058 15.676C19.9137 15.6738 18.7695 15.6745 17.6252 15.6767C16.6435 15.6785 15.6619 15.6787 14.6803 15.6777C14.0936 15.6771 13.507 15.677 12.9203 15.6783C12.3689 15.6794 11.8174 15.6786 11.2659 15.6764C11.0633 15.6759 10.8606 15.676 10.6579 15.6769C10.3818 15.6779 10.1058 15.6766 9.82964 15.6746C9.70864 15.676 9.70864 15.676 9.58519 15.6773C9.23001 15.6724 9.02661 15.6571 8.73961 15.4388C8.58178 15.2175 8.54084 15.1126 8.54504 14.8438C8.54353 14.7471 8.54353 14.7471 8.54199 14.6485C8.71513 13.9967 9.25625 14.0067 9.82964 14.0129Z" fill="white"/>
<path d="M9.47373 17.1377C9.57231 17.1366 9.67088 17.1355 9.77245 17.1344C9.88001 17.1352 9.98757 17.136 10.0984 17.1368C10.2121 17.1361 10.3258 17.1354 10.443 17.1347C10.8195 17.133 11.1959 17.1341 11.5724 17.1355C11.8336 17.1352 12.0949 17.1348 12.3561 17.1343C12.9039 17.1336 13.4516 17.1346 13.9993 17.1364C14.6324 17.1385 15.2654 17.1379 15.8985 17.1357C16.4422 17.1339 16.9859 17.1337 17.5297 17.1347C17.8543 17.1353 18.179 17.1352 18.5036 17.1341C18.8656 17.1331 19.2274 17.1346 19.5894 17.1368C19.6969 17.136 19.8045 17.1352 19.9153 17.1344C20.0632 17.1361 20.0632 17.1361 20.214 17.1377C20.2996 17.1379 20.3851 17.138 20.4733 17.1382C20.7793 17.2036 20.898 17.3396 21.0939 17.578C21.1458 17.7733 21.1458 17.7733 21.1427 17.9686C21.1442 18.0653 21.1442 18.0653 21.1458 18.1639C21.0705 18.4473 20.9261 18.5635 20.7032 18.7498C20.4733 18.799 20.4733 18.799 20.214 18.7994C20.1154 18.8005 20.0169 18.8016 19.9153 18.8028C19.8077 18.802 19.7002 18.8012 19.5894 18.8004C19.4756 18.8011 19.3619 18.8018 19.2447 18.8025C18.8682 18.8042 18.4918 18.803 18.1154 18.8017C17.8541 18.802 17.5929 18.8024 17.3316 18.8029C16.7839 18.8036 16.2362 18.8026 15.6884 18.8008C15.0554 18.7986 14.4224 18.7993 13.7893 18.8015C13.2456 18.8033 12.7018 18.8035 12.1581 18.8025C11.8334 18.8019 11.5088 18.8019 11.1841 18.8031C10.8222 18.8041 10.4603 18.8026 10.0984 18.8004C9.99083 18.8012 9.88327 18.802 9.77245 18.8028C9.62458 18.8011 9.62458 18.8011 9.47373 18.7994C9.38818 18.7993 9.30263 18.7991 9.21449 18.799C8.90842 18.7336 8.78973 18.5976 8.59387 18.3592C8.54199 18.1639 8.54199 18.1639 8.54504 17.9686C8.54353 17.8719 8.54353 17.8719 8.54199 17.7733C8.66941 17.2936 9.01025 17.1385 9.47373 17.1377Z" fill="white"/>
<path d="M9.95496 23.3869C10.0534 23.3863 10.1519 23.3856 10.2534 23.3849C10.5792 23.3832 10.9048 23.3843 11.2306 23.3856C11.4568 23.3854 11.683 23.385 11.9092 23.3845C12.3834 23.3839 12.8576 23.3847 13.3317 23.3866C13.9399 23.3888 14.5481 23.3875 15.1563 23.3852C15.6234 23.3838 16.0905 23.3842 16.5577 23.3852C16.7819 23.3855 17.0062 23.3852 17.2305 23.3843C17.5438 23.3833 17.857 23.3848 18.1703 23.3869C18.3097 23.3858 18.3097 23.3858 18.452 23.3846C19.0799 23.3926 19.0799 23.3926 19.3935 23.6238C19.5424 23.8445 19.5843 23.9549 19.5802 24.2187C19.5817 24.3154 19.5817 24.3154 19.5833 24.4141C19.5029 24.7164 19.3944 24.8131 19.1407 25C18.8179 25.0596 18.4978 25.0533 18.1703 25.0505C18.0718 25.0512 17.9733 25.0519 17.8718 25.0526C17.5461 25.0543 17.2204 25.0532 16.8947 25.0519C16.6684 25.0521 16.4422 25.0525 16.216 25.053C15.7418 25.0536 15.2677 25.0527 14.7935 25.0509C14.1853 25.0487 13.5772 25.05 12.969 25.0523C12.5018 25.0537 12.0347 25.0533 11.5676 25.0523C11.3433 25.052 11.119 25.0523 10.8948 25.0532C10.5814 25.0542 10.2683 25.0527 9.95496 25.0505C9.86201 25.0513 9.76906 25.0521 9.67329 25.0529C9.04534 25.0448 9.04534 25.0448 8.73177 24.8137C8.58282 24.593 8.54092 24.4826 8.54504 24.2187C8.54353 24.1221 8.54353 24.1221 8.54199 24.0234C8.73096 23.312 9.3506 23.3818 9.95496 23.3869Z" fill="white"/>
<path d="M23.874 17.1368C23.9573 17.1361 24.0405 17.1354 24.1263 17.1347C24.4013 17.133 24.6763 17.1341 24.9513 17.1355C25.1425 17.1352 25.3337 17.1348 25.5248 17.1343C25.9255 17.1338 26.326 17.1346 26.7267 17.1364C27.2403 17.1386 27.7538 17.1374 28.2674 17.135C28.6622 17.1336 29.0569 17.1341 29.4517 17.1351C29.6411 17.1353 29.8305 17.135 30.0199 17.1341C30.2845 17.1331 30.5491 17.1346 30.8137 17.1368C30.8921 17.136 30.9704 17.1352 31.0511 17.1344C31.4027 17.1398 31.601 17.157 31.8845 17.3736C32.0436 17.595 32.0844 17.699 32.0802 17.9686C32.0817 18.0653 32.0817 18.0653 32.0833 18.1639C32.0046 18.4599 31.8844 18.5637 31.6407 18.7498C31.3529 18.7884 31.1015 18.8033 30.8137 18.8004C30.6888 18.8014 30.6888 18.8014 30.5615 18.8025C30.2864 18.8042 30.0115 18.803 29.7365 18.8017C29.5453 18.802 29.3541 18.8024 29.1629 18.8029C28.7623 18.8034 28.3617 18.8026 27.9611 18.8008C27.4475 18.7985 26.9339 18.7998 26.4203 18.8022C26.0255 18.8036 25.6308 18.8031 25.236 18.8021C25.0467 18.8019 24.8573 18.8022 24.6679 18.8031C24.4032 18.8041 24.1387 18.8026 23.874 18.8004C23.7957 18.8012 23.7173 18.802 23.6366 18.8028C23.285 18.7974 23.0867 18.7802 22.8032 18.5636C22.6441 18.3421 22.6033 18.2382 22.6075 17.9686C22.606 17.8719 22.606 17.8719 22.6045 17.7733C22.7755 17.1295 23.3057 17.1311 23.874 17.1368Z" fill="white"/>
<path d="M33.249 14.0118C33.3323 14.0111 33.4155 14.0104 33.5013 14.0097C33.7763 14.008 34.0513 14.0091 34.3263 14.0105C34.5175 14.0102 34.7087 14.0098 34.8998 14.0093C35.3005 14.0088 35.701 14.0096 36.1017 14.0114C36.6153 14.0136 37.1288 14.0124 37.6424 14.01C38.0372 14.0086 38.4319 14.0091 38.8267 14.0101C39.0161 14.0103 39.2055 14.01 39.3949 14.0091C39.6595 14.0081 39.9241 14.0096 40.1887 14.0118C40.2671 14.011 40.3454 14.0102 40.4261 14.0094C40.7777 14.0148 40.976 14.032 41.2595 14.2486C41.4186 14.47 41.4594 14.574 41.4552 14.8436C41.4567 14.9403 41.4567 14.9403 41.4583 15.0389C41.3796 15.3349 41.2594 15.4387 41.0157 15.6248C40.7279 15.6634 40.4765 15.6783 40.1887 15.6754C40.0638 15.6764 40.0638 15.6764 39.9365 15.6775C39.6614 15.6792 39.3865 15.678 39.1115 15.6767C38.9203 15.677 38.7291 15.6774 38.5379 15.6779C38.1373 15.6784 37.7367 15.6776 37.3361 15.6758C36.8225 15.6735 36.3089 15.6748 35.7953 15.6772C35.4005 15.6786 35.0058 15.6781 34.611 15.6771C34.4217 15.6769 34.2323 15.6772 34.0429 15.6781C33.7782 15.6791 33.5137 15.6776 33.249 15.6754C33.1707 15.6762 33.0923 15.677 33.0116 15.6778C32.66 15.6724 32.4617 15.6552 32.1782 15.4386C32.0191 15.2171 31.9783 15.1132 31.9825 14.8436C31.981 14.7469 31.981 14.7469 31.9795 14.6483C32.1505 14.0045 32.6807 14.0061 33.249 14.0118Z" fill="white"/>
<path d="M9.52466 10.887C9.63286 10.8858 9.74105 10.8846 9.85253 10.8833C9.96891 10.8841 10.0853 10.8849 10.2052 10.8857C10.3251 10.8853 10.445 10.8849 10.5686 10.8846C10.822 10.8843 11.0755 10.885 11.329 10.8867C11.7174 10.8887 12.1056 10.8867 12.494 10.8842C12.7402 10.8844 12.9864 10.8849 13.2325 10.8857C13.3489 10.8849 13.4653 10.8841 13.5852 10.8833C13.7475 10.8851 13.7475 10.8851 13.9131 10.887C14.0082 10.8873 14.1033 10.8877 14.2013 10.888C14.5237 10.9514 14.6403 11.0758 14.8439 11.3282C14.8958 11.5235 14.8958 11.5235 14.8927 11.7188C14.8942 11.8155 14.8942 11.8155 14.8958 11.9141C14.82 12.1992 14.679 12.3139 14.4532 12.5001C14.2013 12.5497 14.2013 12.5497 13.9131 12.5506C13.8049 12.5519 13.6967 12.5531 13.5852 12.5544C13.4688 12.5536 13.3525 12.5528 13.2325 12.552C13.0527 12.5525 13.0527 12.5525 12.8692 12.5531C12.6157 12.5534 12.3622 12.5526 12.1087 12.551C11.7203 12.5489 11.3321 12.551 10.9437 12.5535C10.6976 12.5532 10.4514 12.5527 10.2052 12.552C10.0888 12.5527 9.97244 12.5535 9.85253 12.5544C9.69023 12.5525 9.69023 12.5525 9.52466 12.5506C9.42955 12.5503 9.33445 12.55 9.23646 12.5497C8.91404 12.4862 8.79741 12.3619 8.59387 12.1095C8.54199 11.9141 8.54199 11.9141 8.54504 11.7188C8.54353 11.6221 8.54353 11.6221 8.54199 11.5235C8.67733 11.014 9.04061 10.8886 9.52466 10.887Z" fill="white"/>
<path d="M41.0156 23.4375C41.2598 23.584 41.2598 23.584 41.4063 23.8281C41.4835 24.2208 41.467 24.5082 41.2598 24.8535C40.9145 25.0607 40.6271 25.0773 40.2344 25C39.9902 24.8535 39.9902 24.8535 39.8438 24.6094C39.7665 24.2167 39.7831 23.9293 39.9902 23.584C40.3355 23.3768 40.623 23.3603 41.0156 23.4375Z" fill="white"/>
<path d="M37.8906 23.4375C38.1348 23.584 38.1348 23.584 38.2813 23.8281C38.3585 24.2208 38.342 24.5082 38.1348 24.8535C37.7895 25.0607 37.5021 25.0773 37.1094 25C36.8652 24.8535 36.8652 24.8535 36.7188 24.6094C36.6415 24.2167 36.6581 23.9293 36.8652 23.584C37.2105 23.3768 37.498 23.3603 37.8906 23.4375Z" fill="white"/>
<path d="M34.7656 23.4375C35.0098 23.584 35.0098 23.584 35.1563 23.8281C35.2335 24.2208 35.217 24.5082 35.0098 24.8535C34.6645 25.0607 34.3771 25.0773 33.9844 25C33.7402 24.8535 33.7402 24.8535 33.5938 24.6094C33.5165 24.2167 33.5331 23.9293 33.7402 23.584C34.0855 23.3768 34.373 23.3603 34.7656 23.4375Z" fill="white"/>
<path d="M31.6406 23.4375C31.8848 23.584 31.8848 23.584 32.0313 23.8281C32.1085 24.2208 32.092 24.5082 31.8848 24.8535C31.5395 25.0607 31.2521 25.0773 30.8594 25C30.6152 24.8535 30.6152 24.8535 30.4688 24.6094C30.3915 24.2167 30.4081 23.9293 30.6152 23.584C30.9605 23.3768 31.248 23.3603 31.6406 23.4375Z" fill="white"/>
</svg>
