<svg width="25" height="25" viewBox="0 0 25 25" fill="none" xmlns="http://www.w3.org/2000/svg">
<path d="M0 4.6875C1.34344 4.68448 2.68689 4.68146 4.07104 4.67834C4.70526 4.67634 4.70526 4.67634 5.35228 4.6743C5.87212 4.67364 5.87212 4.67364 6.11616 4.67352C6.28511 4.67338 6.45405 4.67284 6.623 4.67203C6.83958 4.67102 7.05615 4.67073 7.27274 4.67094C7.35155 4.67089 7.43036 4.67061 7.50917 4.67004C8.86201 4.66066 10.2071 4.97136 11.2183 5.92651C11.9698 6.72294 12.2258 7.73253 12.2143 8.80146C12.1773 9.73563 11.9061 10.553 11.2246 11.2106C10.9846 11.4112 10.7217 11.5659 10.4492 11.7187C10.564 11.8335 10.6714 11.8791 10.8185 11.9476C11.1002 12.0865 11.3364 12.2445 11.5723 12.4512C11.6023 12.4772 11.6323 12.5032 11.6632 12.5299C12.379 13.1949 12.6564 14.1548 12.709 15.1005C12.7507 16.3409 12.3744 17.5264 11.5326 18.4509C10.7669 19.2575 9.83733 19.6443 8.7616 19.8334C8.69377 19.8456 8.69377 19.8456 8.62458 19.8581C5.78748 20.3241 2.8751 19.9707 0 19.9707C0 14.9272 0 9.88379 0 4.6875ZM3.125 7.37305C3.125 8.46875 3.125 9.56445 3.125 10.6934C3.77178 10.6962 3.77178 10.6962 4.41856 10.6981C4.68308 10.6987 4.9476 10.6994 5.21212 10.7007C5.42582 10.7018 5.63952 10.7024 5.85323 10.7026C5.934 10.7028 6.01478 10.7031 6.09555 10.7037C6.5194 10.7064 6.9375 10.6957 7.35924 10.6506C7.39475 10.6469 7.43025 10.6432 7.46683 10.6393C7.97214 10.5793 8.45305 10.4088 8.78906 10.0098C9.07347 9.59212 9.14804 9.05696 9.05933 8.56571C8.9632 8.19425 8.78443 7.89903 8.46863 7.67517C7.98246 7.39803 7.35504 7.36489 6.80571 7.3675C6.76564 7.3675 6.72558 7.36749 6.68431 7.36748C6.55327 7.36751 6.42224 7.36789 6.2912 7.36828C6.1998 7.36837 6.1084 7.36844 6.017 7.36849C5.77747 7.36867 5.53794 7.36915 5.29841 7.36969C5.01046 7.37028 4.72251 7.3705 4.43456 7.37079C3.99804 7.37126 3.56152 7.3722 3.125 7.37305ZM3.125 13.2324C3.125 14.5537 3.125 15.875 3.125 17.2363C3.89924 17.2406 3.89924 17.2406 4.67348 17.2435C4.98968 17.2444 5.30587 17.2454 5.62207 17.2474C5.87724 17.249 6.13242 17.2498 6.3876 17.2502C6.48452 17.2505 6.58144 17.251 6.67835 17.2518C7.37818 17.2573 8.0427 17.257 8.64258 16.8457C8.67311 16.8252 8.70363 16.8048 8.73508 16.7837C9.06745 16.5324 9.292 16.1207 9.36279 15.7114C9.4236 15.0378 9.42395 14.4074 8.97579 13.8565C8.26726 13.1647 7.17517 13.2174 6.25782 13.2229C6.16691 13.2231 6.076 13.2232 5.98509 13.2233C5.74837 13.2237 5.51166 13.2246 5.27494 13.2257C4.98955 13.2269 4.70416 13.2273 4.41877 13.2279C3.98751 13.2288 3.55626 13.2307 3.125 13.2324Z" fill="#323B43"/>
<path d="M23.1058 9.5005C24.2453 10.4917 24.8494 11.842 25 13.3301C25 13.9263 25 14.5225 25 15.1367C22.2608 15.1367 19.5215 15.1367 16.6992 15.1367C16.9392 16.4281 16.9392 16.4281 17.7582 17.3736C18.4695 17.8306 19.3177 17.9536 20.1447 17.8137C20.8097 17.6542 21.2376 17.3445 21.6309 16.7969C21.6504 16.7629 21.67 16.729 21.6901 16.694C21.7774 16.6016 21.7774 16.6016 21.9118 16.5781C21.9661 16.5785 22.0204 16.5789 22.0764 16.5794C22.138 16.5794 22.1995 16.5794 22.263 16.5794C22.3302 16.5804 22.3974 16.5814 22.4646 16.5825C22.5333 16.5828 22.6021 16.5831 22.6709 16.5833C22.8517 16.5841 23.0326 16.586 23.2134 16.5881C23.398 16.5901 23.5826 16.591 23.7672 16.592C24.1293 16.5941 24.4914 16.5974 24.8535 16.6016C24.847 16.6708 24.8401 16.74 24.8331 16.8092C24.8293 16.8478 24.8256 16.8863 24.8216 16.926C24.7954 17.1044 24.7324 17.2591 24.6582 17.4225C24.6431 17.4561 24.628 17.4897 24.6125 17.5244C24.4585 17.8533 24.2586 18.1317 24.0235 18.4082C23.9822 18.4574 23.9409 18.5066 23.8983 18.5574C23.0371 19.5556 21.7708 20.1698 20.4594 20.3022C19.5796 20.3639 18.6301 20.3964 17.7735 20.166C17.7386 20.1568 17.7037 20.1476 17.6678 20.1382C16.3403 19.7742 15.1138 18.9768 14.3769 17.8009C13.4636 16.1621 13.4133 13.9731 13.8956 12.1931C14.2719 10.9002 15.0599 9.74485 16.2482 9.0721C18.2866 7.98078 21.2664 7.96935 23.1058 9.5005ZM17.5781 11.4258C17.1556 11.8735 16.7969 12.5035 16.7969 13.1348C18.4727 13.1348 20.1485 13.1348 21.875 13.1348C21.7576 12.3715 21.6072 11.7911 20.9809 11.3159C19.9893 10.6307 18.4887 10.5536 17.5781 11.4258Z" fill="#323B43"/>
<path d="M15.9668 5.37109C18.1582 5.37109 20.3496 5.37109 22.6074 5.37109C22.6074 6.01562 22.6074 6.66016 22.6074 7.32422C20.416 7.32422 18.2246 7.32422 15.9668 7.32422C15.9668 6.67969 15.9668 6.03516 15.9668 5.37109Z" fill="#323B43"/>
</svg>
