<svg width="90" height="90" viewBox="0 0 90 90" fill="none" xmlns="http://www.w3.org/2000/svg">
<circle cx="45" cy="45" r="45" fill="#1A1F23"/>
<path d="M54.2539 47.9648H39.6289C39.4102 47.9648 39.2422 48.043 39.125 48.1992C38.9609 48.4258 38.8789 48.7031 38.8789 49.0312V51.3047H38V42.8789H38.8789V44.8242C38.8789 45.2305 38.9727 45.5312 39.1602 45.7266C39.3555 45.9219 39.6133 46.0195 39.9336 46.0195H50.9844C51.2109 46.0195 51.4023 45.9297 51.5586 45.75C51.7148 45.5703 51.793 45.3398 51.793 45.0586V42.457H52.6016C52.7578 43.6758 52.9648 44.6641 53.2227 45.4219C53.4883 46.1797 53.832 46.8477 54.2539 47.4258V47.9648Z" fill="#323B43"/>
</svg>
