<svg width="25" height="25" viewBox="0 0 25 25" fill="none" xmlns="http://www.w3.org/2000/svg">
<g clip-path="url(#clip0_278_1194)">
<path d="M15.307 -0.00820441C15.3602 -0.00840455 15.4134 -0.00860469 15.4682 -0.00881089C15.6395 -0.00927549 15.8108 -0.00927648 15.9821 -0.00915809C16.0692 -0.00918685 16.0692 -0.00918685 16.158 -0.0092162C18.0645 -0.00845899 18.0645 -0.00845898 18.9941 0.146482C18.9941 1.46777 18.9941 2.78906 18.9941 4.15039C17.865 4.17175 17.865 4.17175 17.5131 4.17813C16.0919 4.14413 16.0919 4.14413 14.8865 4.78515C14.5589 5.18406 14.4986 5.74475 14.4919 6.24283C14.4914 6.27482 14.4909 6.3068 14.4904 6.33976C14.4889 6.44201 14.4877 6.54427 14.4865 6.64653C14.4851 6.74105 14.4851 6.74105 14.4837 6.83747C14.4804 7.07194 14.4775 7.30641 14.4745 7.54089C14.4674 8.06558 14.4604 8.59027 14.4531 9.13086C15.9033 9.13086 17.3535 9.13086 18.8477 9.13086C18.7916 9.91616 18.7916 9.91616 18.7485 10.2417C18.7436 10.2795 18.7388 10.3173 18.7338 10.3563C18.7184 10.4757 18.7029 10.595 18.6872 10.7143C18.6776 10.7893 18.6679 10.8642 18.6583 10.9391C18.623 11.2133 18.5873 11.4874 18.5516 11.7615C18.4721 12.3758 18.3925 12.9901 18.3105 13.623C17.0376 13.623 15.7646 13.623 14.4531 13.623C14.4531 17.3774 14.4531 21.1318 14.4531 25C12.9224 25 11.3916 25 9.81445 25C9.81445 21.2456 9.81445 17.4912 9.81445 13.623C8.55762 13.623 7.30078 13.623 6.00586 13.623C6.00586 12.1406 6.00586 10.6582 6.00586 9.13086C7.2627 9.13086 8.51953 9.13086 9.81445 9.13086C9.81061 7.96964 9.81061 7.96964 9.80566 6.80842C9.80041 4.98283 9.90149 3.13879 11.1816 1.70898C11.2207 1.66536 11.2597 1.62174 11.2999 1.5768C12.342 0.47459 13.8152 -0.00645864 15.307 -0.00820441Z" fill="#323B43"/>
<path d="M15.307 -0.00819678C15.3602 -0.00839692 15.4134 -0.00859706 15.4682 -0.00880326C15.6395 -0.00926786 15.8108 -0.00926885 15.9821 -0.00915046C16.0692 -0.00917922 16.0692 -0.00917922 16.158 -0.00920857C18.0645 -0.00845136 18.0645 -0.00845136 18.9941 0.146489C18.9941 1.46778 18.9941 2.78907 18.9941 4.1504C17.865 4.17176 17.865 4.17176 17.5131 4.17814C16.0919 4.14413 16.0919 4.14413 14.8865 4.78516C14.5589 5.18407 14.4986 5.74476 14.4919 6.24284C14.4914 6.27482 14.4909 6.30681 14.4904 6.33976C14.4889 6.44202 14.4877 6.54428 14.4865 6.64654C14.4851 6.74105 14.4851 6.74105 14.4837 6.83747C14.4804 7.07195 14.4775 7.30642 14.4745 7.5409C14.4674 8.06559 14.4604 8.59028 14.4531 9.13086C15.9033 9.13086 17.3535 9.13086 18.8477 9.13086C18.7916 9.91616 18.7916 9.91616 18.7485 10.2417C18.7436 10.2795 18.7388 10.3173 18.7338 10.3563C18.7184 10.4757 18.7029 10.595 18.6872 10.7143C18.6776 10.7893 18.6679 10.8642 18.6583 10.9391C18.623 11.2133 18.5873 11.4874 18.5516 11.7615C18.4721 12.3758 18.3925 12.9901 18.3105 13.6231C17.0376 13.6231 15.7646 13.6231 14.4531 13.6231C14.4531 17.3774 14.4531 21.1318 14.4531 25C12.9224 25 11.3916 25 9.81445 25C9.81445 21.2456 9.81445 17.4912 9.81445 13.6231C8.55762 13.6231 7.30078 13.6231 6.00586 13.6231C6.00586 12.1406 6.00586 10.6582 6.00586 9.13086C7.2627 9.13086 8.51953 9.13086 9.81445 9.13086C9.81061 7.96964 9.81061 7.96964 9.80566 6.80843C9.80041 4.98284 9.90149 3.13879 11.1816 1.70899C11.2207 1.66537 11.2597 1.62175 11.2999 1.57681C12.342 0.474598 13.8152 -0.00645101 15.307 -0.00819678Z" fill="#323B43"/>
</g>
<defs>
<clipPath id="clip0_278_1194">
<rect width="25" height="25" fill="white"/>
</clipPath>
</defs>
</svg>
