<svg width="25" height="25" viewBox="0 0 25 25" fill="none" xmlns="http://www.w3.org/2000/svg">
<path d="M2.04394 18.1438C2.04372 18.0688 2.04372 18.0688 2.0435 17.9923C2.04308 17.8254 2.043 17.6585 2.04293 17.4916C2.0427 17.3717 2.04246 17.2518 2.0422 17.1318C2.04156 16.8063 2.04124 16.4809 2.04102 16.1554C2.04089 15.9518 2.04068 15.7482 2.04046 15.5446C2.03987 14.9798 2.03936 14.415 2.0392 13.8503C2.03918 13.7961 2.03918 13.7961 2.03917 13.7409C2.03915 13.7047 2.03914 13.6685 2.03913 13.6312C2.03911 13.5579 2.03909 13.4846 2.03907 13.4113C2.03906 13.375 2.03905 13.3386 2.03904 13.3012C2.03884 12.7129 2.03799 12.1246 2.03685 11.5363C2.03569 10.9309 2.03509 10.3256 2.03503 9.72023C2.03499 9.38091 2.03471 9.04158 2.03382 8.70226C2.03298 8.38271 2.03291 8.06318 2.03334 7.74363C2.03337 7.6269 2.03316 7.51016 2.03268 7.39343C2.02662 5.8432 2.33815 4.50951 3.4485 3.36304C4.36639 2.45502 5.5787 2.04275 6.85619 2.04392C6.93119 2.0437 6.93119 2.0437 7.00769 2.04348C7.17459 2.04306 7.34148 2.04299 7.50838 2.04291C7.62832 2.04269 7.74825 2.04244 7.86819 2.04218C8.19367 2.04154 8.51914 2.04122 8.84462 2.04101C9.04822 2.04087 9.25183 2.04066 9.45543 2.04044C10.0202 2.03985 10.585 2.03934 11.1497 2.03918C11.1858 2.03917 11.2219 2.03916 11.2591 2.03915C11.2953 2.03914 11.3315 2.03913 11.3688 2.03911C11.4421 2.03909 11.5154 2.03907 11.5887 2.03905C11.625 2.03904 11.6614 2.03903 11.6989 2.03902C12.2871 2.03882 12.8754 2.03797 13.4637 2.03683C14.0691 2.03567 14.6744 2.03507 15.2798 2.03501C15.6191 2.03497 15.9584 2.03469 16.2978 2.0338C16.6173 2.03296 16.9368 2.03289 17.2564 2.03332C17.3731 2.03336 17.4899 2.03315 17.6066 2.03266C19.1568 2.0266 20.4905 2.33813 21.637 3.44848C22.545 4.36637 22.9573 5.57869 22.9561 6.85618C22.9563 6.93117 22.9563 6.93117 22.9565 7.00768C22.957 7.17457 22.957 7.34146 22.9571 7.50836C22.9573 7.6283 22.9576 7.74823 22.9578 7.86817C22.9585 8.19365 22.9588 8.51912 22.959 8.8446C22.9591 9.04821 22.9594 9.25181 22.9596 9.45541C22.9602 10.0202 22.9607 10.585 22.9608 11.1497C22.9609 11.2039 22.9608 11.2039 22.9609 11.2591C22.9609 11.2953 22.9609 11.3315 22.9609 11.3687C22.9609 11.442 22.9609 11.5154 22.961 11.5887C22.961 11.625 22.961 11.6614 22.961 11.6988C22.9612 12.2871 22.962 12.8754 22.9632 13.4637C22.9643 14.069 22.9649 14.6744 22.965 15.2798C22.965 15.6191 22.9653 15.9584 22.9662 16.2977C22.9671 16.6173 22.9671 16.9368 22.9667 17.2564C22.9667 17.3731 22.9669 17.4898 22.9674 17.6066C22.9734 19.1568 22.6619 20.4905 21.5515 21.637C20.6336 22.545 19.4213 22.9572 18.1438 22.9561C18.0938 22.9562 18.0438 22.9564 17.9923 22.9565C17.8254 22.9569 17.6586 22.957 17.4917 22.9571C17.3717 22.9573 17.2518 22.9576 17.1318 22.9578C16.8064 22.9585 16.4809 22.9588 16.1554 22.959C15.9518 22.9591 15.7482 22.9593 15.5446 22.9596C14.9798 22.9601 14.4151 22.9607 13.8503 22.9608C13.8142 22.9608 13.7781 22.9608 13.7409 22.9608C13.7047 22.9609 13.6685 22.9609 13.6313 22.9609C13.558 22.9609 13.4847 22.9609 13.4114 22.9609C13.375 22.961 13.3386 22.961 13.3012 22.961C12.7129 22.9612 12.1246 22.962 11.5363 22.9632C10.931 22.9643 10.3256 22.9649 9.72025 22.965C9.38093 22.965 9.0416 22.9653 8.70228 22.9662C8.38273 22.967 8.0632 22.9671 7.74365 22.9667C7.62692 22.9666 7.51018 22.9668 7.39345 22.9673C5.85093 22.9734 4.53543 22.6697 3.38442 21.5698C2.47203 20.6259 2.04275 19.4408 2.04394 18.1438ZM4.68752 6.73828C5.02637 6.96722 5.38554 7.08193 5.79302 7.00779C6.2921 6.87256 6.61279 6.58001 6.88173 6.14624C7.02072 5.76005 6.98098 5.32701 6.81459 4.9591C6.59936 4.58018 6.29214 4.33725 5.87141 4.22058C5.48805 4.14591 5.17693 4.20622 4.834 4.39453C4.47953 4.6465 4.2373 4.93664 4.15041 5.37109C4.09019 5.91213 4.27296 6.38158 4.68752 6.73828ZM6.10353 14.5996C6.1199 14.6491 6.13626 14.6986 6.15312 14.7495C6.41985 15.499 6.80697 16.1934 7.32424 16.7969C7.34518 16.8216 7.36612 16.8463 7.3877 16.8717C8.47678 18.1461 9.96678 18.9442 11.6211 19.1895C11.6639 19.1959 11.7067 19.2023 11.7508 19.2089C13.388 19.4108 15.136 18.9398 16.4566 17.9562C16.5892 17.8493 16.7179 17.7395 16.8457 17.627C16.8873 17.5913 16.9289 17.5556 16.9718 17.5188C18.3345 16.3278 19.0948 14.6803 19.2383 12.8906C19.339 11.1632 18.7583 9.45904 17.627 8.1543C17.5924 8.11382 17.5579 8.07335 17.5223 8.03165C16.3295 6.66759 14.6829 5.90545 12.8906 5.76172C11.1632 5.66104 9.45906 6.24167 8.15431 7.37305C8.11384 7.4076 8.07337 7.44216 8.03167 7.47776C6.70943 8.63396 5.90377 10.2856 5.76803 12.0357C5.76491 12.0964 5.76491 12.0964 5.76174 12.1582C5.75915 12.2057 5.75657 12.2531 5.75392 12.302C5.7329 13.0751 5.85201 13.8687 6.10353 14.5996Z" fill="#323B43"/>
<path d="M8.63471 12.668C8.61437 12.0164 8.73835 11.3734 9.03315 10.791C9.0572 10.743 9.08124 10.695 9.10601 10.6455C9.59792 9.73581 10.4123 9.11676 11.3826 8.78601C12.3881 8.49635 13.4724 8.61885 14.3959 9.10606C15.3077 9.65058 15.96 10.5012 16.2536 11.5204C16.5169 12.6221 16.3078 13.6864 15.7258 14.6479C15.1533 15.4823 14.3026 16.0697 13.3119 16.2847C13.2484 16.2966 13.2484 16.2966 13.1835 16.3086C13.1497 16.3149 13.1159 16.3213 13.0811 16.3279C12.9848 16.3427 12.8902 16.3514 12.7929 16.3574C12.7311 16.3613 12.7311 16.3613 12.668 16.3652C12.0164 16.3856 11.3733 16.2616 10.791 15.9668C10.7429 15.9427 10.6949 15.9187 10.6454 15.8939C9.74061 15.4046 9.09643 14.5824 8.78596 13.6064C8.74911 13.4659 8.71788 13.3264 8.69136 13.1836C8.68182 13.1329 8.68182 13.1329 8.67209 13.0812C8.65093 12.9438 8.64339 12.8067 8.63471 12.668Z" fill="#323B43"/>
</svg>
