<svg width="22" height="22" viewBox="0 0 22 22" fill="none" xmlns="http://www.w3.org/2000/svg">
<g clip-path="url(#clip0_278_1181)">
<path d="M5.5 1.67578C5.8857 2.00404 6.24209 2.36731 6.60057 2.72466C6.64054 2.76444 6.64054 2.76444 6.68132 2.80504C6.82192 2.945 6.9624 3.08508 7.10277 3.22527C7.24655 3.36881 7.39073 3.51195 7.535 3.655C7.64717 3.76637 7.75906 3.87804 7.87086 3.98978C7.92388 4.04266 7.97699 4.09544 8.03022 4.1481C8.62806 4.73998 9.07242 5.31168 9.10937 6.1875C9.06005 7.19865 8.28838 7.87611 7.61621 8.54541C7.55697 8.6049 7.55697 8.6049 7.49653 8.66559C7.45826 8.70381 7.41998 8.74203 7.38055 8.7814C7.34633 8.81557 7.31212 8.84974 7.27686 8.88494C7.17578 8.98047 7.07073 9.06706 6.96093 9.15234C6.98603 9.36839 7.08437 9.5353 7.18921 9.72168C7.20811 9.75547 7.22702 9.78926 7.2465 9.82407C7.54602 10.3484 7.90474 10.8388 8.29296 11.3008C8.31981 11.333 8.31981 11.333 8.3472 11.3659C8.86933 11.9914 9.41982 12.6167 10.0394 13.1476C10.116 13.2133 10.1918 13.2798 10.2673 13.3467C10.8407 13.8518 11.4531 14.3156 12.1172 14.6953C12.1419 14.7098 12.1666 14.7243 12.1921 14.7392C12.2679 14.7834 12.3442 14.8268 12.4207 14.8699C12.4655 14.8952 12.5103 14.9205 12.5564 14.9466C12.6892 15.0017 12.7177 15.0022 12.8477 14.9531C12.9255 14.893 12.9255 14.893 12.9984 14.815C13.0271 14.7858 13.0558 14.7567 13.0854 14.7267C13.1314 14.6791 13.1314 14.6791 13.1783 14.6305C13.2104 14.5979 13.2425 14.5653 13.2756 14.5317C13.4129 14.3923 13.5495 14.2522 13.686 14.1121C13.786 14.0098 13.8863 13.9079 13.9867 13.8061C14.0319 13.7592 14.0319 13.7592 14.078 13.7115C14.3611 13.4243 14.6741 13.1734 15.0525 13.0249C15.094 13.0082 15.1355 12.9914 15.1782 12.9742C15.7234 12.7876 16.3011 12.8746 16.8115 13.1189C17.0023 13.2321 17.1635 13.3642 17.324 13.5162C17.3509 13.5416 17.3779 13.567 17.4057 13.5931C17.847 14.0118 18.2758 14.4436 18.7058 14.8737C18.8353 15.0031 18.965 15.1323 19.0948 15.2613C19.1963 15.3623 19.2975 15.4634 19.3986 15.5646C19.4464 15.6123 19.4942 15.6599 19.5421 15.7075C20.1375 16.2991 20.6594 16.8854 20.6814 17.7595C20.6658 18.6871 20.107 19.3073 19.4816 19.9367C19.4434 19.9752 19.4053 20.0138 19.3659 20.0536C19.2857 20.1344 19.2054 20.2151 19.125 20.2956C19.0436 20.3772 18.9625 20.4592 18.8818 20.5415C18.0173 21.4215 18.0173 21.4215 17.5312 21.6563C17.4869 21.6777 17.4426 21.6992 17.3969 21.7213C16.1207 22.3109 14.5591 21.9893 13.2773 21.5703C13.2401 21.5581 13.2028 21.546 13.1644 21.5334C10.621 20.687 8.2304 19.1329 6.27343 17.3164C6.2256 17.2725 6.17777 17.2287 6.12992 17.1848C5.0352 16.1767 5.0352 16.1767 4.60168 15.6232C4.50015 15.4974 4.39127 15.3798 4.28076 15.262C4.02442 14.9863 3.79443 14.6938 3.5664 14.3945C3.54202 14.3628 3.51765 14.3312 3.49253 14.2985C2.50069 13.008 1.65183 11.6284 0.988278 10.1406C0.967895 10.096 0.947511 10.0514 0.92651 10.0055C0.206461 8.38735 -0.390649 6.43727 0.225583 4.69434C0.490912 4.04918 0.958199 3.59278 1.44507 3.11041C1.57684 2.97951 1.70638 2.84917 1.82617 2.70703C2.78282 1.58272 4.08819 0.689863 5.5 1.67578ZM3.4375 2.96484C3.18486 3.20447 2.93842 3.45051 2.6914 3.6959C2.61238 3.77421 2.53312 3.85229 2.45364 3.93013C2.33783 4.04357 2.22276 4.15772 2.10782 4.27203C2.07263 4.30625 2.03744 4.34046 2.00119 4.37571C1.47404 4.90479 1.27734 5.53499 1.27846 6.27012C1.28917 6.96761 1.46385 7.63249 1.67578 8.29297C1.68849 8.33314 1.7012 8.37331 1.7143 8.4147C2.17839 9.8561 2.91958 11.2205 3.78125 12.4609C3.7995 12.4873 3.81776 12.5137 3.83657 12.5409C4.24955 13.135 4.69064 13.7118 5.15625 14.2656C5.18435 14.2992 5.18435 14.2992 5.21302 14.3335C5.80447 15.0386 6.43024 15.7454 7.13382 16.3412C7.2406 16.4328 7.34354 16.5282 7.44702 16.6235C7.67942 16.8348 7.91746 17.0361 8.16406 17.2305C8.19405 17.2543 8.22403 17.2781 8.25493 17.3026C10.4028 18.9999 13.4173 20.9497 16.2852 20.7109C16.8608 20.6272 17.3729 20.2772 17.7399 19.8365C17.8867 19.6669 18.0433 19.5093 18.203 19.3521C18.2289 19.3265 18.2548 19.3009 18.2815 19.2745C18.3899 19.1677 18.4984 19.061 18.6074 18.9547C18.6877 18.8762 18.7676 18.7972 18.8475 18.7183C18.8718 18.6948 18.896 18.6713 18.921 18.6472C19.1613 18.4084 19.363 18.1486 19.3923 17.8025C19.3764 17.1762 18.6023 16.6176 18.1864 16.198C18.1612 16.1727 18.1361 16.1474 18.1103 16.1213C17.9779 15.9877 17.8453 15.8543 17.7126 15.721C17.6039 15.6117 17.4954 15.502 17.3872 15.3921C17.2551 15.2579 17.1225 15.1242 16.9894 14.9908C16.9393 14.9404 16.8894 14.8899 16.8397 14.8392C16.4088 14.3779 16.4088 14.3779 15.834 14.1729C15.4089 14.1914 15.1415 14.4907 14.8637 14.7782C14.7883 14.8548 14.7129 14.9314 14.6375 15.008C14.52 15.1282 14.4026 15.2485 14.2854 15.3689C14.1715 15.4857 14.057 15.602 13.9425 15.7182C13.8909 15.7718 13.8909 15.7718 13.8382 15.8264C13.5876 16.0802 13.3179 16.3139 12.967 16.4084C12.5261 16.4096 12.1941 16.2343 11.8164 16.0273C11.767 16.0008 11.767 16.0008 11.7166 15.9737C10.8053 15.4801 9.97411 14.8468 9.21276 14.1451C9.12582 14.0658 9.03755 13.9888 8.94841 13.912C8.75693 13.7448 8.57689 13.5676 8.3977 13.3875C8.36693 13.3568 8.33616 13.3262 8.30446 13.2947C8.10555 13.0954 7.91778 12.8893 7.73437 12.6758C7.6946 12.6307 7.65477 12.5858 7.61486 12.5408C5.57868 10.2239 5.57868 10.2239 5.56311 8.97191C5.62271 8.65769 5.79956 8.44068 6.02636 8.22583C6.06084 8.19197 6.06084 8.19197 6.09602 8.15743C6.22064 8.03621 6.34888 7.92038 6.48056 7.80689C6.68699 7.6276 6.88038 7.43611 7.07373 7.24292C7.10895 7.20822 7.14418 7.17352 7.18048 7.13776C7.64183 6.694 7.64183 6.694 7.82031 6.10156C7.75902 5.54007 7.09081 5.06368 6.71202 4.68376C6.68425 4.65587 6.65648 4.62799 6.62788 4.59925C6.48142 4.45216 6.33486 4.30519 6.18818 4.15833C6.0372 4.00711 5.88662 3.8555 5.73613 3.70379C5.61968 3.58654 5.50294 3.46957 5.38612 3.35269C5.33046 3.2969 5.2749 3.241 5.21946 3.18499C5.14206 3.10685 5.06426 3.02914 4.98635 2.95151C4.96378 2.92854 4.94121 2.90557 4.91795 2.88191C4.39836 2.3681 3.91421 2.52074 3.4375 2.96484Z" fill="url(#paint0_linear_278_1181)"/>
<path d="M12.9792 0.112794C13.026 0.12455 13.0728 0.136306 13.121 0.148419C14.9328 0.611722 16.5856 1.43714 18.0039 2.66406C18.0402 2.69486 18.0766 2.72566 18.114 2.75739C18.6481 3.22292 19.1639 3.73297 19.5937 4.29688C19.6273 4.33881 19.6609 4.38074 19.6955 4.42394C20.3759 5.27812 20.9066 6.23432 21.3142 7.24548C21.3508 7.33614 21.3884 7.42634 21.4261 7.51651C21.7073 8.2183 22.1177 9.24548 22 10.0117C21.8985 10.2187 21.7773 10.3399 21.5703 10.4414C21.3277 10.4802 21.1323 10.4518 20.9258 10.3125C20.7858 10.1608 20.7264 10.0413 20.6834 9.84035C20.6722 9.79012 20.6609 9.73989 20.6494 9.68814C20.6378 9.63452 20.6262 9.58089 20.6143 9.52564C20.2747 8.03442 19.6908 6.62053 18.7507 5.40483C18.6904 5.32688 18.6311 5.24832 18.5717 5.16968C18.3311 4.85382 18.0767 4.5713 17.7891 4.29688C17.688 4.19675 17.5877 4.09626 17.4898 3.99307C16.1966 2.64609 14.2784 1.74099 12.4646 1.37416C12.4298 1.36703 12.3951 1.35989 12.3592 1.35254C12.2932 1.33931 12.227 1.32679 12.1606 1.31513C11.9332 1.27017 11.8098 1.19508 11.6445 1.03125C11.5303 0.836029 11.4944 0.688302 11.5339 0.4693C11.5875 0.29001 11.6782 0.166426 11.829 0.0581806C12.1747 -0.114763 12.6242 0.0209997 12.9792 0.112794Z" fill="url(#paint1_linear_278_1181)"/>
<path d="M15.31 5.35599C15.5961 5.58414 15.8549 5.84314 16.1133 6.10156C16.1395 6.12582 16.1658 6.15008 16.1928 6.17508C17.1492 7.07249 17.9739 8.6673 18.0227 9.98755C18.0166 10.1995 17.9821 10.3262 17.832 10.4844C17.6691 10.6121 17.522 10.6454 17.3164 10.6563C17.1082 10.6138 16.934 10.5233 16.8008 10.3555C16.7389 10.2168 16.7065 10.0733 16.6719 9.92578C16.3737 8.7447 15.8817 7.79401 15.0391 6.91797C15.0125 6.88817 14.9859 6.85837 14.9585 6.82767C14.2111 6.01691 13.0953 5.53434 12.0372 5.30459C11.7693 5.24625 11.5837 5.20265 11.4231 4.97078C11.337 4.79961 11.3309 4.65793 11.3438 4.46875C11.4251 4.24286 11.5382 4.13065 11.7305 3.99609C12.8217 3.6843 14.4843 4.72512 15.31 5.35599Z" fill="url(#paint2_linear_278_1181)"/>
</g>
<defs>
<linearGradient id="paint0_linear_278_1181" x1="-0.0310211" y1="22.0436" x2="20.7612" y2="1.33136" gradientUnits="userSpaceOnUse">
<stop stop-color="#AD3890"/>
<stop offset="1" stop-color="#EE741E"/>
</linearGradient>
<linearGradient id="paint1_linear_278_1181" x1="11.5185" y1="10.4573" x2="22.0008" y2="-0.0449278" gradientUnits="userSpaceOnUse">
<stop stop-color="#AD3890"/>
<stop offset="1" stop-color="#EE741E"/>
</linearGradient>
<linearGradient id="paint2_linear_278_1181" x1="11.3386" y1="10.6563" x2="18.0557" y2="3.97225" gradientUnits="userSpaceOnUse">
<stop stop-color="#AD3890"/>
<stop offset="1" stop-color="#EE741E"/>
</linearGradient>
<clipPath id="clip0_278_1181">
<rect width="22" height="22" fill="white"/>
</clipPath>
</defs>
</svg>
