<svg width="105" height="25" viewBox="0 0 105 25" fill="none" xmlns="http://www.w3.org/2000/svg">
<path d="M93.5124 10.4983C94.0499 10.9384 94.3322 11.4824 94.4688 12.146C94.5297 12.915 94.3363 13.6277 93.8186 14.2243C93.2919 14.7572 92.6392 15.0002 91.8897 15.0513C91.165 15.0377 90.4959 14.773 89.9739 14.288C89.4943 13.7633 89.2293 13.1275 89.2433 12.4228C89.3093 11.6876 89.5856 11.0413 90.1587 10.5469C91.1811 9.81632 92.4674 9.75107 93.5124 10.4983Z" fill="#323B43"/>
<path d="M67.5124 10.4983C68.0499 10.9384 68.3322 11.4824 68.4688 12.146C68.5297 12.915 68.3363 13.6277 67.8186 14.2243C67.2919 14.7572 66.6392 15.0002 65.8897 15.0513C65.165 15.0377 64.4959 14.773 63.9739 14.288C63.4943 13.7633 63.2293 13.1275 63.2433 12.4228C63.3093 11.6876 63.5856 11.0413 64.1587 10.5469C65.1811 9.81632 66.4674 9.75107 67.5124 10.4983Z" fill="#323B43"/>
<path d="M42.5124 10.4983C43.0499 10.9384 43.3322 11.4824 43.4688 12.146C43.5297 12.915 43.3363 13.6277 42.8186 14.2243C42.2919 14.7572 41.6392 15.0002 40.8897 15.0513C40.165 15.0377 39.4959 14.773 38.9739 14.288C38.4943 13.7633 38.2293 13.1275 38.2433 12.4228C38.3093 11.6876 38.5856 11.0413 39.1587 10.5469C40.1811 9.81632 41.4674 9.75107 42.5124 10.4983Z" fill="#323B43"/>
<path d="M18.0951 2.88085C18.1284 2.89803 18.1616 2.9152 18.1959 2.9329C19.1278 3.41479 19.9432 4.03204 20.7088 4.73632C20.7556 4.77912 20.8024 4.82192 20.8506 4.86602C21.2098 5.20408 21.5158 5.56836 21.8146 5.95702C21.8472 5.99886 21.8472 5.99886 21.8804 6.04154C22.2204 6.47992 22.5047 6.93754 22.7697 7.42187C22.7869 7.45268 22.8041 7.48349 22.8219 7.51523C23.4369 8.61931 23.807 9.8421 23.976 11.084C23.9808 11.1179 23.9856 11.1519 23.9906 11.1869C24.0427 11.6106 24.0385 12.0373 24.0388 12.4634C24.0389 12.5047 24.0389 12.546 24.0389 12.5886C24.0381 13.2366 24.0094 13.8652 23.8755 14.5019C23.8668 14.5438 23.8582 14.5857 23.8493 14.6288C23.4004 16.7457 22.3857 18.5515 20.8596 20.1172C20.8156 20.1626 20.7715 20.2081 20.7261 20.2549C20.3781 20.6039 20.0031 20.9011 19.603 21.1914C19.5599 21.223 19.5599 21.223 19.516 21.2553C19.0647 21.5856 18.5937 21.8618 18.0951 22.1191C18.0634 22.1359 18.0316 22.1526 17.999 22.1698C15.865 23.2917 13.1876 23.666 10.8068 23.1934C10.7637 23.185 10.7206 23.1766 10.6762 23.168C8.55187 22.7428 6.60448 21.7706 5.05611 20.291C4.984 20.2223 4.91073 20.1548 4.83731 20.0874C4.49376 19.7668 4.20549 19.4124 3.92058 19.043C3.89879 19.015 3.87701 18.987 3.85456 18.9582C3.51468 18.5199 3.23045 18.0623 2.96556 17.5781C2.93972 17.5319 2.93972 17.5319 2.91336 17.4848C2.29827 16.3807 1.92817 15.1579 1.75922 13.916C1.75441 13.882 1.7496 13.848 1.74464 13.813C1.47623 11.6305 1.88551 9.35352 2.96556 7.42187C2.98324 7.38955 3.00092 7.35723 3.01914 7.32393C3.5152 6.41862 4.1506 5.62659 4.8756 4.88281C4.91966 4.83736 4.96372 4.79192 5.00911 4.7451C5.35711 4.3961 5.73211 4.09884 6.13221 3.80859C6.16092 3.78749 6.18963 3.7664 6.21921 3.74467C6.67048 3.41441 7.14156 3.13823 7.64013 2.88085C7.67185 2.86412 7.70356 2.84738 7.73624 2.83014C8.87278 2.23263 10.1315 1.8731 11.4099 1.70898C11.4449 1.7043 11.4799 1.69963 11.516 1.69482C13.7626 1.43407 16.1066 1.83166 18.0951 2.88085ZM5.96433 6.254C5.7181 6.51638 5.4962 6.79572 5.27771 7.08007C5.24571 7.12117 5.2137 7.16227 5.18072 7.20462C4.2799 8.40433 3.74346 9.81854 3.51847 11.2793C3.51328 11.3126 3.5081 11.3459 3.50276 11.3802C3.45425 11.7396 3.45596 12.1015 3.45564 12.4634C3.4556 12.4979 3.45557 12.5325 3.45553 12.5681C3.45941 15.062 4.53186 17.2967 6.30185 19.0765C6.60997 19.369 6.9412 19.626 7.28828 19.873C7.31675 19.8934 7.34522 19.9137 7.37455 19.9346C8.62953 20.8169 10.0784 21.3728 11.611 21.582C11.6449 21.5869 11.6788 21.5918 11.7138 21.5969C12.0842 21.6441 12.4569 21.6427 12.8299 21.6431C12.8655 21.6431 12.901 21.6431 12.9377 21.6432C15.5049 21.6394 17.8054 20.5976 19.6376 18.8782C19.9386 18.5788 20.2032 18.2571 20.4575 17.9199C20.4784 17.8923 20.4993 17.8646 20.5209 17.8361C21.4291 16.617 22.0014 15.2095 22.2167 13.7207C22.2218 13.6877 22.2268 13.6548 22.232 13.6208C22.2807 13.2611 22.2793 12.8989 22.2796 12.5366C22.2796 12.5021 22.2796 12.4675 22.2797 12.4319C22.2758 9.938 21.2034 7.70329 19.4334 5.92346C19.1259 5.63078 18.7914 5.37671 18.4469 5.12695C18.4046 5.09585 18.3623 5.06476 18.3187 5.03272C17.0837 4.15764 15.6279 3.63653 14.1242 3.41796C14.0899 3.41293 14.0556 3.40789 14.0203 3.4027C13.6504 3.35558 13.2778 3.35724 12.9053 3.35693C12.8697 3.35689 12.8342 3.35686 12.7975 3.35683C10.1802 3.36066 7.78653 4.44736 5.96433 6.254Z" fill="#EE741E"/>
<path d="M14.5124 10.4983C15.0499 10.9384 15.3322 11.4824 15.4688 12.146C15.5297 12.915 15.3363 13.6277 14.8186 14.2243C14.2919 14.7572 13.6392 15.0002 12.8897 15.0513C12.165 15.0377 11.4959 14.773 10.9739 14.288C10.4943 13.7633 10.2293 13.1275 10.2433 12.4228C10.3093 11.6876 10.5856 11.0413 11.1587 10.5469C12.1811 9.81632 13.4674 9.75107 14.5124 10.4983Z" fill="#EE741E"/>
</svg>
