<svg width="25" height="25" viewBox="0 0 25 25" fill="none" xmlns="http://www.w3.org/2000/svg">
<path d="M0 0.0985017C0.97098 0.0803785 1.94192 0.0667365 2.91304 0.0583723C3.364 0.0543847 3.81485 0.0489527 4.26574 0.0400726C4.65892 0.0323328 5.05201 0.0273516 5.44527 0.0256286C5.6534 0.0246218 5.86129 0.0222716 6.06934 0.016612C7.33432 -0.0164968 7.33432 -0.0164968 7.64209 0.174196C7.82807 0.35049 7.93759 0.54727 8.02952 0.781444C8.08253 0.908492 8.15981 1.01299 8.24359 1.12262C8.29288 1.1927 8.34216 1.26279 8.39143 1.33289C8.65903 1.71328 8.92734 2.09318 9.19608 2.4728C9.30972 2.63335 9.42328 2.79394 9.53685 2.95453C9.5825 3.01907 9.62815 3.08362 9.67381 3.14816C12.6868 7.408 12.6868 7.408 12.7553 7.50492C12.8007 7.56911 12.8461 7.6333 12.8915 7.69749C13.0095 7.86421 13.1273 8.03098 13.2451 8.19783C13.2694 8.23225 13.2937 8.26666 13.3187 8.30212C13.3647 8.36727 13.4107 8.43245 13.4566 8.49764C13.6002 8.70089 13.7465 8.90201 13.8944 9.10226C14.089 8.91797 14.2684 8.72472 14.4453 8.52439C14.4735 8.49264 14.5017 8.46088 14.5307 8.42816C14.6176 8.33024 14.7042 8.2322 14.7908 8.13411C14.8168 8.10477 14.8427 8.07542 14.8694 8.04519C15.0427 7.84913 15.2156 7.65281 15.3884 7.45641C15.7216 7.0779 16.0557 6.70026 16.3915 6.32406C16.6728 6.00886 16.952 5.69196 17.2311 5.3749C17.5642 4.99638 17.8983 4.61874 18.2342 4.24255C18.5154 3.92735 18.7947 3.61045 19.0737 3.29338C19.4068 2.91487 19.7409 2.53723 20.0768 2.16104C20.4106 1.78697 20.7417 1.41063 21.0725 1.03412C21.0985 1.00461 21.1245 0.975101 21.1512 0.944696C21.1998 0.889473 21.2484 0.834222 21.2969 0.778934C21.3434 0.72605 21.3909 0.673963 21.4392 0.622626C21.5189 0.533845 21.5189 0.533845 21.5793 0.418006C21.6787 0.265966 21.7515 0.191151 21.9124 0.0985017C22.2947 0.0239138 22.6955 0.0577604 23.0827 0.0712726C23.1912 0.0734596 23.2998 0.0754471 23.4083 0.077229C23.6734 0.082013 23.9383 0.0892872 24.2032 0.0985017C24.1562 0.16006 24.1092 0.221543 24.0621 0.282995C24.0228 0.334365 24.0228 0.334365 23.9828 0.386773C23.8759 0.521759 23.7602 0.643216 23.6398 0.767127C23.4227 0.993085 23.2197 1.22678 23.0202 1.46771C22.904 1.60429 22.7829 1.73495 22.6594 1.86537C22.4545 2.08174 22.2624 2.30541 22.0725 2.53418C21.929 2.70308 21.7775 2.86401 21.6258 3.02582C21.5109 3.15153 21.4016 3.28051 21.293 3.41138C21.1007 3.6424 20.8978 3.86125 20.6909 4.07981C20.5305 4.2534 20.3805 4.4342 20.2298 4.6157C20.0864 4.78459 19.9349 4.94552 19.7832 5.10733C19.6682 5.23304 19.559 5.36202 19.4503 5.49289C19.2581 5.72391 19.0552 5.94277 18.8482 6.16132C18.6879 6.33491 18.5379 6.51571 18.3872 6.69721C18.2791 6.82455 18.1672 6.94714 18.0528 7.06915C17.8977 7.23458 17.7494 7.40341 17.6046 7.57743C17.4247 7.79353 17.2367 8.00002 17.0441 8.2054C16.9292 8.33111 16.8199 8.46009 16.7113 8.59095C16.5191 8.82198 16.3161 9.04083 16.1092 9.25939C15.9492 9.43256 15.7995 9.6128 15.6495 9.79414C15.5007 9.96881 15.3422 10.1339 15.1817 10.2984C15.0824 10.418 15.0234 10.5005 14.99 10.6513C15.0463 10.7816 15.0463 10.7816 15.1488 10.9085C15.2048 10.9849 15.2048 10.9849 15.262 11.0629C15.2825 11.0903 15.3031 11.1176 15.3242 11.1458C15.4134 11.2657 15.499 11.3879 15.5848 11.5102C15.6542 11.6091 15.7241 11.7077 15.7941 11.8063C15.933 12.002 16.0716 12.198 16.2102 12.394C16.2558 12.4585 16.3015 12.523 16.3471 12.5876C17.3514 14.0075 18.3557 15.4275 19.3601 16.8474C19.3827 16.8794 19.4052 16.9113 19.4285 16.9442C19.4742 17.0089 19.52 17.0735 19.5657 17.1382C19.6786 17.2978 19.7914 17.4573 19.9044 17.6168C20.1785 18.0042 20.452 18.392 20.7251 18.7801C20.9652 19.1213 21.206 19.4621 21.4471 19.8026C21.5607 19.9632 21.6743 20.1237 21.7878 20.2843C21.8335 20.3489 21.8792 20.4134 21.9248 20.478C22.5639 21.3816 23.203 22.2852 23.8421 23.1888C23.8648 23.2208 23.8874 23.2527 23.9107 23.2857C23.9561 23.3499 24.0014 23.4141 24.0468 23.4783C24.1648 23.6453 24.2832 23.8122 24.4022 23.9786C24.4267 24.013 24.4512 24.0474 24.4765 24.0829C24.523 24.1481 24.5696 24.2133 24.6164 24.2784C24.6376 24.3083 24.6589 24.3381 24.6808 24.3689C24.6992 24.3946 24.7176 24.4204 24.7366 24.4469C24.8304 24.589 24.9141 24.7363 25 24.883C24.0308 24.9046 23.0616 24.9208 22.0921 24.9307C21.6419 24.9354 21.1919 24.9419 20.7418 24.9524C20.3492 24.9616 19.9568 24.9675 19.5641 24.9696C19.3563 24.9708 19.1489 24.9735 18.9412 24.9803C17.6822 25.0195 17.6822 25.0195 17.3493 24.7948C17.1384 24.5841 17.0072 24.3482 16.8884 24.08C16.7993 23.8935 16.6766 23.7327 16.5525 23.567C16.5076 23.5039 16.4629 23.4406 16.4183 23.3773C16.3963 23.3463 16.3744 23.3152 16.3517 23.2833C16.2381 23.1227 16.1245 22.9621 16.011 22.8015C15.9653 22.737 15.9197 22.6724 15.874 22.6079C14.8697 21.1879 13.8654 19.768 12.8611 18.348C12.8385 18.3161 12.8159 18.2842 12.7926 18.2513C12.7469 18.1866 12.7011 18.1219 12.6554 18.0573C12.5426 17.8977 12.4297 17.7382 12.3167 17.5786C12.1785 17.3834 12.0404 17.188 11.9024 16.9926C11.8763 16.9557 11.8502 16.9188 11.8233 16.8808C11.4639 16.372 11.1076 15.8614 10.757 15.3468C10.4318 15.6832 10.1155 16.0219 9.81796 16.3821C9.71122 16.5085 9.60041 16.6298 9.48705 16.7506C9.33289 16.915 9.18568 17.0828 9.04196 17.2559C8.84975 17.4869 8.64681 17.7057 8.43987 17.9243C8.27953 18.0979 8.12953 18.2787 7.97883 18.4602C7.83542 18.6291 7.68392 18.79 7.53218 18.9518C7.41724 19.0775 7.30799 19.2065 7.19933 19.3374C7.00712 19.5684 6.80418 19.7873 6.59724 20.0058C6.4369 20.1794 6.2869 20.3602 6.1362 20.5417C5.99279 20.7106 5.84129 20.8715 5.68955 21.0333C5.57461 21.159 5.46536 21.288 5.3567 21.4189C5.16449 21.6499 4.96155 21.8688 4.75461 22.0873C4.59427 22.2609 4.44427 22.4417 4.29357 22.6232C4.15016 22.7921 3.99866 22.953 3.84692 23.1148C3.73198 23.2406 3.62273 23.3695 3.51407 23.5004C3.32235 23.7308 3.12 23.9492 2.91354 24.1671C2.74428 24.3504 2.58504 24.5404 2.42604 24.7321C2.34064 24.8346 2.34064 24.8346 2.29084 24.883C2.21898 24.8875 2.1469 24.8887 2.07489 24.8885C2.0061 24.8885 2.0061 24.8885 1.93592 24.8885C1.88607 24.8883 1.83622 24.888 1.78485 24.8878C1.73408 24.8877 1.6833 24.8876 1.63098 24.8876C1.46809 24.8873 1.3052 24.8867 1.14231 24.8861C1.03217 24.8858 0.922028 24.8856 0.811889 24.8854C0.541258 24.8849 0.270629 24.8841 0 24.883C0.0474178 24.821 0.0949109 24.7591 0.142436 24.6972C0.168875 24.6627 0.195315 24.6282 0.222556 24.5927C0.313658 24.4769 0.411462 24.3695 0.513571 24.2628C0.671954 24.0944 0.823572 23.9229 0.971116 23.7455C1.15097 23.5294 1.33897 23.3229 1.53157 23.1175C1.64651 22.9918 1.75575 22.8628 1.86442 22.7319C2.05663 22.5009 2.25956 22.2821 2.4665 22.0635C2.62685 21.8899 2.77685 21.7091 2.92755 21.5276C3.07096 21.3587 3.22246 21.1978 3.3742 21.036C3.48914 20.9103 3.59838 20.7813 3.70705 20.6504C3.89926 20.4194 4.10219 20.2005 4.30913 19.982C4.46948 19.8084 4.61947 19.6276 4.77018 19.4461C4.91359 19.2772 5.06509 19.1163 5.21683 18.9545C5.33177 18.8288 5.44101 18.6998 5.54968 18.5689C5.74189 18.3379 5.94482 18.119 6.15176 17.9005C6.31211 17.7269 6.4621 17.5461 6.61281 17.3646C6.75622 17.1957 6.90772 17.0348 7.05946 16.8729C7.1744 16.7472 7.28364 16.6183 7.39231 16.4874C7.58452 16.2564 7.78745 16.0375 7.99439 15.819C8.15474 15.6454 8.30473 15.4646 8.45544 15.2831C8.59847 15.1146 8.74953 14.9541 8.90092 14.7928C9.06033 14.6183 9.21046 14.4371 9.36041 14.255C9.46215 14.1366 9.46215 14.1366 9.5779 14.0364C9.60544 14.0056 9.63298 13.9747 9.66136 13.943C9.63096 13.7281 9.49475 13.571 9.36878 13.3984C9.31858 13.3286 9.26839 13.2587 9.21821 13.1889C9.19248 13.1533 9.16675 13.1177 9.14025 13.081C9.02229 12.9173 8.90611 12.7524 8.78984 12.5876C8.7442 12.523 8.69855 12.4585 8.65289 12.394C8.19638 11.7485 7.73987 11.1031 7.28337 10.4577C7.26078 10.4257 7.23819 10.3938 7.21491 10.3609C7.16918 10.2962 7.12345 10.2316 7.07772 10.1669C6.96487 10.0073 6.85199 9.84777 6.73906 9.68825C6.46488 9.30089 6.19142 8.91305 5.91837 8.52494C5.67827 8.18373 5.43744 7.84303 5.19635 7.50248C5.08272 7.34193 4.96915 7.18133 4.85558 7.02074C4.80993 6.9562 4.76428 6.89166 4.71863 6.82711C3.71431 5.40717 2.70999 3.98722 1.70568 2.56727C1.67179 2.51937 1.67179 2.51937 1.63723 2.47049C1.59149 2.40583 1.54576 2.34117 1.50003 2.27651C1.38718 2.11694 1.2743 1.95738 1.16137 1.79786C1.07163 1.67109 0.981953 1.54427 0.892329 1.41741C0.785801 1.26663 0.678997 1.11604 0.572126 0.965484C0.513177 0.882224 0.454233 0.798961 0.395294 0.715695C0.367376 0.676457 0.339459 0.637219 0.310696 0.596792C0.271588 0.541457 0.271588 0.541457 0.23169 0.485004C0.208576 0.452415 0.185461 0.419827 0.161646 0.386251C0.10013 0.292933 0.0501997 0.197902 0 0.0985017ZM3.08765 1.74435C3.14278 1.829 3.19797 1.91362 3.25319 1.99822C3.28391 2.04534 3.31464 2.09246 3.3463 2.14102C3.46356 2.31806 3.58713 2.48995 3.71327 2.66106C3.76536 2.73227 3.81743 2.8035 3.86948 2.87474C3.89634 2.91144 3.9232 2.94815 3.95087 2.98597C4.09357 3.18161 4.23488 3.37819 4.37625 3.57475C4.41992 3.63544 4.41992 3.63544 4.46448 3.69736C4.52376 3.77975 4.58305 3.86214 4.64232 3.94454C4.78804 4.14707 4.93386 4.34952 5.07968 4.55197C5.13778 4.63265 5.19588 4.71333 5.25398 4.79401C5.29712 4.85391 5.29712 4.85391 5.34114 4.91503C5.42829 5.03604 5.51544 5.15706 5.60259 5.27808C5.63134 5.31801 5.66009 5.35793 5.68972 5.39906C5.7479 5.47986 5.80608 5.56066 5.86426 5.64146C6.00822 5.84138 6.15222 6.04128 6.2963 6.24112C6.63931 6.71699 6.98122 7.19358 7.32242 7.67067C7.6244 8.09281 7.92762 8.51411 8.23119 8.93517C8.37598 9.13604 8.52065 9.33698 8.66534 9.53792C8.72344 9.6186 8.78154 9.69928 8.83964 9.77996C8.95584 9.94132 9.07205 10.1027 9.18825 10.264C9.217 10.304 9.24575 10.3439 9.27537 10.385C9.33356 10.4658 9.39174 10.5466 9.44992 10.6274C9.59388 10.8273 9.73788 11.0272 9.88196 11.2271C10.225 11.7029 10.5669 12.1795 10.9081 12.6566C11.2101 13.0788 11.5133 13.5001 11.8168 13.9211C11.9616 14.122 12.1063 14.3229 12.251 14.5239C12.3091 14.6046 12.3672 14.6852 12.4253 14.7659C12.5415 14.9273 12.6577 15.0886 12.7739 15.25C12.8027 15.2899 12.8314 15.3298 12.861 15.371C12.9192 15.4518 12.9774 15.5326 13.0356 15.6134C13.1795 15.8133 13.3235 16.0132 13.4676 16.213C13.8106 16.6889 14.1525 17.1655 14.4937 17.6426C14.7957 18.0647 15.0989 18.486 15.4025 18.9071C15.5473 19.1079 15.692 19.3089 15.8367 19.5098C15.8948 19.5905 15.9529 19.6712 16.011 19.7519C16.3596 20.2359 16.7082 20.72 17.0568 21.2041C17.0856 21.2441 17.1144 21.284 17.144 21.3252C17.2018 21.4055 17.2596 21.4857 17.3174 21.566C17.4674 21.7744 17.6176 21.9827 17.768 22.1909C17.8145 22.2554 17.8145 22.2554 17.862 22.3211C17.9207 22.4025 17.9794 22.4838 18.0382 22.5651C18.0651 22.6023 18.092 22.6396 18.1197 22.678C18.1545 22.7262 18.1545 22.7262 18.19 22.7754C18.2769 22.8983 18.2769 22.8983 18.3265 23.0076C18.3971 23.1435 18.4576 23.2331 18.5757 23.334C18.8284 23.3958 19.0767 23.3848 19.3348 23.3765C19.4092 23.3757 19.4835 23.3751 19.5579 23.3747C19.753 23.373 19.9479 23.3687 20.143 23.3639C20.3422 23.3594 20.5415 23.3575 20.7409 23.3553C21.1314 23.3506 21.5219 23.3432 21.9124 23.334C21.8567 23.2486 21.801 23.1632 21.7452 23.0778C21.7142 23.0303 21.6832 22.9827 21.6512 22.9337C21.5528 22.785 21.4499 22.6419 21.3428 22.499C21.1181 22.1969 20.8985 21.8915 20.6798 21.5853C20.4252 21.2289 20.1702 20.8727 19.9141 20.5173C19.8716 20.4583 19.8716 20.4583 19.8282 20.3981C19.7712 20.319 19.7142 20.24 19.6573 20.161C19.5125 19.9601 19.3678 19.7592 19.2231 19.5582C19.165 19.4776 19.1069 19.3969 19.0488 19.3162C18.9326 19.1548 18.8164 18.9935 18.7002 18.8321C18.6714 18.7922 18.6427 18.7523 18.6131 18.7111C18.5549 18.6303 18.4967 18.5495 18.4385 18.4687C18.2946 18.2688 18.1506 18.0689 18.0065 17.8691C17.6635 17.3932 17.3216 16.9166 16.9804 16.4395C16.6784 16.0174 16.3752 15.5961 16.0716 15.175C15.9268 14.9742 15.7821 14.7732 15.6375 14.5723C15.5794 14.4916 15.5212 14.4109 15.4631 14.3302C15.3469 14.1689 15.2307 14.0075 15.1145 13.8462C15.0858 13.8062 15.057 13.7663 15.0274 13.7252C14.9692 13.6444 14.911 13.5636 14.8529 13.4828C14.7089 13.2829 14.5649 13.083 14.4208 12.8831C14.0778 12.4073 13.7359 11.9307 13.3947 11.4536C13.0927 11.0314 12.7895 10.6101 12.4859 10.1891C12.3412 9.98821 12.1965 9.78727 12.0518 9.58633C11.9937 9.50565 11.9356 9.42497 11.8775 9.34429C11.5289 8.86022 11.1803 8.37615 10.8317 7.89207C10.7885 7.83219 10.7885 7.83219 10.7445 7.77109C10.6864 7.6903 10.6282 7.6095 10.57 7.5287C10.426 7.32878 10.282 7.12888 10.138 6.92903C9.79496 6.45317 9.45304 5.97658 9.11184 5.49948C8.80986 5.07734 8.50664 4.65605 8.20308 4.23498C8.02949 3.99417 7.85605 3.75327 7.68262 3.51235C7.53257 3.30393 7.38239 3.0956 7.23201 2.8874C7.1855 2.82296 7.1855 2.82296 7.13805 2.75722C7.07934 2.67588 7.0206 2.59457 6.9618 2.51329C6.92145 2.45736 6.92145 2.45736 6.88029 2.40031C6.85708 2.36819 6.83388 2.33607 6.80997 2.30298C6.72311 2.18002 6.72311 2.18002 6.67348 2.07078C6.6029 1.93486 6.54236 1.84527 6.4243 1.74435C6.17164 1.68252 5.92335 1.69352 5.66523 1.7018C5.59085 1.70262 5.51647 1.70324 5.44209 1.70367C5.247 1.70533 5.05207 1.7096 4.85704 1.71443C4.65776 1.7189 4.45845 1.72088 4.25914 1.72308C3.86857 1.72774 3.47813 1.73517 3.08765 1.74435Z" fill="#323B43"/>
</svg>
